<?xml version="1.0" encoding="utf-8"?>
<!-- Generator: Adobe Illustrator 23.0.1, SVG Export Plug-In . SVG Version: 6.00 Build 0)  -->
<!DOCTYPE svg PUBLIC "-//W3C//DTD SVG 1.1//EN" "http://www.w3.org/Graphics/SVG/1.1/DTD/svg11.dtd" [
	<!ENTITY ns_extend "http://ns.adobe.com/Extensibility/1.0/">
	<!ENTITY ns_ai "http://ns.adobe.com/AdobeIllustrator/10.0/">
	<!ENTITY ns_graphs "http://ns.adobe.com/Graphs/1.0/">
	<!ENTITY ns_vars "http://ns.adobe.com/Variables/1.0/">
	<!ENTITY ns_imrep "http://ns.adobe.com/ImageReplacement/1.0/">
	<!ENTITY ns_sfw "http://ns.adobe.com/SaveForWeb/1.0/">
	<!ENTITY ns_custom "http://ns.adobe.com/GenericCustomNamespace/1.0/">
	<!ENTITY ns_adobe_xpath "http://ns.adobe.com/XPath/1.0/">
]>
<svg version="1.1" id="Layer_1" xmlns:x="&ns_extend;" xmlns:i="&ns_ai;" xmlns:graph="&ns_graphs;"
	 xmlns="http://www.w3.org/2000/svg" xmlns:xlink="http://www.w3.org/1999/xlink" x="0px" y="0px" viewBox="0 0 568 260.5"
	 style="enable-background:new 0 0 568 260.5;" xml:space="preserve">
<style type="text/css">
	.st0{display:none;}
	.st1{display:inline;stroke:#000000;stroke-miterlimit:10;}
	.st2{display:inline;fill:#061604;stroke:#000000;stroke-miterlimit:10;}
	.st3{display:none;opacity:0.5;fill-rule:evenodd;clip-rule:evenodd;enable-background:new    ;}
	.st4{fill:#FFFFFF;}
	.st5{fill:none;}
	.st6{display:none;fill:#FFFFFF;enable-background:new    ;}
	.st7{font-family:'ArialMT';}
	.st8{font-size:24px;}
	.st9{fill-rule:evenodd;clip-rule:evenodd;fill:#FFFFFF;}
	.st10{fill-rule:evenodd;clip-rule:evenodd;fill:#A5A5A5;}
</style>
<metadata>
	<x:xmpmeta  xmlns:x="adobe:ns:meta/">
		<rdf:RDF  xmlns:rdf="http://www.w3.org/1999/02/22-rdf-syntax-ns#">
			<rdf:Description  rdf:about="" xmlns:dc="http://purl.org/dc/elements/1.1/">
				<dc:format>image/svg+xml</dc:format>
				<dc:title>
					<rdf:Alt>
						<rdf:li>Web</rdf:li>
					</rdf:Alt>
				</dc:title>
			</rdf:Description>
			<rdf:Description  rdf:about="" xmlns:xmp="http://ns.adobe.com/xap/1.0/" xmlns:xmpGImg="http://ns.adobe.com/xap/1.0/g/img/">
				<xmp:CreatorTool>Adobe Illustrator CS6 (Windows)</xmp:CreatorTool>
				<xmp:CreateDate>2018-10-31T18:50:46+02:00</xmp:CreateDate>
				<xmp:ModifyDate>2018-10-31T18:50:46+02:00</xmp:ModifyDate>
				<xmp:MetadataDate>2018-10-31T18:50:46+02:00</xmp:MetadataDate>
				<xmp:Thumbnails>
					<rdf:Alt>
						<rdf:li  rdf:parseType="Resource">
							<xmpGImg:width>256</xmpGImg:width>
							<xmpGImg:height>192</xmpGImg:height>
							<xmpGImg:format>JPEG</xmpGImg:format>
							<xmpGImg:image>/9j/4AAQSkZJRgABAgEASABIAAD/7QAsUGhvdG9zaG9wIDMuMAA4QklNA+0AAAAAABAASAAAAAEA
AQBIAAAAAQAB/+4ADkFkb2JlAGTAAAAAAf/bAIQABgQEBAUEBgUFBgkGBQYJCwgGBggLDAoKCwoK
DBAMDAwMDAwQDA4PEA8ODBMTFBQTExwbGxscHx8fHx8fHx8fHwEHBwcNDA0YEBAYGhURFRofHx8f
Hx8fHx8fHx8fHx8fHx8fHx8fHx8fHx8fHx8fHx8fHx8fHx8fHx8fHx8fHx8f/8AAEQgAwAEAAwER
AAIRAQMRAf/EAaIAAAAHAQEBAQEAAAAAAAAAAAQFAwIGAQAHCAkKCwEAAgIDAQEBAQEAAAAAAAAA
AQACAwQFBgcICQoLEAACAQMDAgQCBgcDBAIGAnMBAgMRBAAFIRIxQVEGE2EicYEUMpGhBxWxQiPB
UtHhMxZi8CRygvElQzRTkqKyY3PCNUQnk6OzNhdUZHTD0uIIJoMJChgZhJRFRqS0VtNVKBry4/PE
1OT0ZXWFlaW1xdXl9WZ2hpamtsbW5vY3R1dnd4eXp7fH1+f3OEhYaHiImKi4yNjo+Ck5SVlpeYmZ
qbnJ2en5KjpKWmp6ipqqusra6voRAAICAQIDBQUEBQYECAMDbQEAAhEDBCESMUEFURNhIgZxgZEy
obHwFMHR4SNCFVJicvEzJDRDghaSUyWiY7LCB3PSNeJEgxdUkwgJChgZJjZFGidkdFU38qOzwygp
0+PzhJSktMTU5PRldYWVpbXF1eX1RlZmdoaWprbG1ub2R1dnd4eXp7fH1+f3OEhYaHiImKi4yNjo
+DlJWWl5iZmpucnZ6fkqOkpaanqKmqq6ytrq+v/aAAwDAQACEQMRAD8A9U4q7FXYq7FXYq7FXYq7
FXYq7FXYq7FXYq7FXYq7FXYq7FXYq7FXYq7FXYq7FXYq7FXYq7FXYq7FXYq7FXYq7FXYq7FXYq7F
XYq7FXYq7FXYq7FXYq7FXYq7FXYq7FXYq7FXYq7FXYq7FXYq7FXYq7FXYq7FXYq7FXYq7FXYq7FX
Yq7FXYq7FXYq7FXYq7FXYq7FXYq7FXYq7FXYq7FXYq7FXYq7FXYq7FXYq7FXYq7FXYq7FXYq7FXY
q7FXYq7FXYq7FXYq7FXYq7FXYq7FXYq7FXYq7FXYq7FXYq7FXYq7FXYq7FXYq7FXYq7FXYq7FXYq
7FXYq7FXYq7FXYq7FXYq7FXYq7FXYq7FXYq7FXYq7FXYq7FXYq7FXYq7FXYq7FXYq7FXYq7FXYq7
FXYq7FXYq7FXYq7FXYq7FXYq7FXYq7FXYq7FXYq7FXYq7FXYq7FXYq7FXYq7FXYq7FXYq7FXYq7F
XYq7FXYq7FXYq7FXYq7FXYq7FXYq7FXYq7FXYq7FXYq7FXYq7FXYq7FXYq7FXYq7FXYq7FXYq7FX
Yq7FXYq7FXYq7FXYq7FXYq7FXYq7FXYq7FXYq7FXYq7FXYq7FXYq7FXYq7FXYq7FXYq7FXYq7FXY
q7FXYq7FXYq7FXYq7FXYq7FXYq7FXYq7FXYq7FXYq7FXYq7FXYq7FXYq7FXYq7FXYq7FXYq7FXYq
7FXYq7FXYq7FXYq7FXYq7FXYq7FXYq7FXYq7FXYq84/NPz/e6PImj6U/pXkqepc3IFWjRtlVK9GN
OvYdM0HbHaUsR8OG0up7nne2+1JYT4ePaR5nueXXus6zbzxU1C5+uKBJPN60nMSN8XGtajgCAf8A
KrnO5M+SJHqlxddzz/H2vMZNRkiR6pcXU2ef7PvepflZ+YF5rLvo+quJL2JDJb3NADIimjK9NuS1
69x+PR9j9pSy/u5/UOR73p+xe1JZj4eTeQ5HvejZvnonYq7FXYq7FXYq7FXYq7FXYq7FXYq7FXYq
7FXYq7FXYq7FXYq7FXYq7FXYq7FXYq7FXYq7FXhv5p2a2nnW5vrs80mSGW0typIcJGEPJvs8Q6fE
Ovy65x3bEOHUGUutUPh+t4jtrHw6kyl1qh37V8rDA5ZJJZHlkYtI5LOx6kk1JzSkkmy6Mkk2We/l
Hpc/+Kre5IoYopJHT+WJkKBm8CzOOI7ip6UruuxcJ8cHuB+X45O97CwHxxLuB+VfinuOdi9s7FXY
q7FXYq7FXYq7FXYq7FXYq7FXYq7FXYq7FXYq7FXYq7FXYq7FXYq7FXYq7FXYq7FXYqk3mnynpPmS
xFtfqQ8ZLW9wm0kbHrQnqD3BzE1mihqI1L4HucPW6HHqI8M/ge5gsX5HiKYldVBWvwu0HJlX2Xnx
5e5+6uaaPs/R+v7P2ujj7N0fr+z9rPPLXlbS/L1m0FkGeSVudzcynlLK/izfqGbrSaOGCNR68z1L
vdHooaeNR68yeZTfMpy3Yq7FXYq7FXYq7FXYq7FXYq7FXYq7FXYq7FXYq7FXYq7FXYq7FXYq7FXY
q7FXYq7FXYq7FXYq7FXYq7FXYq7FXYq7FXYq7FXYq7FXYq7FXYq7FXYq7FXYq7FXYq7FXYq7FXYq
7FXYq7FXYq7FXYq7FXYq7FXYq7FXYq7FXYq7FXYq7FXYq7FXYq7FXYq7FXYq7FXYq7FXYq7FXYq7
FXYq7FXYq7FXYq7FXYq7FXYq7FXYq7FXYq7FXYq7FXYq7FXYq7FXYq7FXYq7FXYq7FXYq7FXYq7F
XYq7FXYq7FXYq7FXYq7FXYq7FXYq7FXYq7FXYq7FXYq7FXYq7FXYq7FXYq7FXYq7FXYq7FXYq7FX
Yq7FXYq7FXYq7FXYq7FXYq7FXYq7FXYq7FXYq7FXYq7FXYq7FXYq7FXYq7FXYq7FXYq7FXYq7FXY
q7FXYq7FXYq7FXYq7FXYq7FXYq7FXYq7FXYq7FXYq7FXYq7FXYq7FXYq7FXYq7FXYq7FXYq7FXYq
7FXYq7FXYq7FXYq7FXYq7FXYq7FXYq7FXYq7FXYq7FXYq7FXYq7FXYq7FXYq7FXYq7FXYq7FXYq7
FXYq7FXYq7FXYq7FXYq7FXYq7FXYq7FXYq7FXYq7FXYq7FXYq7FXYq7FXYq7FXYq7FXYq7FXYq7F
XYq7FXYq7FXYq7FXYq7FXYq7FXYq7FXYq7FXYq7FXYq7FXYq7FXYq7FXYq7FXYq7FXYq7FXYq7FX
Yq7FXYq7FXYq7FXYq7FXYq7FXYq7FXYq7FXYq7FXYq7FXYq7FXYq7FXYq7FXYq7FXYq7FXYq7FXY
q7FXYq7FXYq7FXYq7FXYq7FXYq7FXYq7FXYq7FXYq7FXYq7FXYq7FXYq7FXYq7FXYq7FXYq7FXYq
7FXYq7FXYq7FXYq7FXYq7FXYq7FXYq7FXYq7FXYq7FXYq7FXYq7FXYq7FXYq7FXYq7FXYq7FXYq7
FXYq7FXYq7FXYq7FXYq7FXYq7FXYq7FXYq7FXYq//9k=
								</xmpGImg:image>
						</rdf:li>
					</rdf:Alt>
				</xmp:Thumbnails>
			</rdf:Description>
			
				<rdf:Description  rdf:about="" xmlns:stEvt="http://ns.adobe.com/xap/1.0/sType/ResourceEvent#" xmlns:stRef="http://ns.adobe.com/xap/1.0/sType/ResourceRef#" xmlns:xmpMM="http://ns.adobe.com/xap/1.0/mm/">
				<xmpMM:RenditionClass>proof:pdf</xmpMM:RenditionClass>
				<xmpMM:OriginalDocumentID>uuid:65E6390686CF11DBA6E2D887CEACB407</xmpMM:OriginalDocumentID>
				<xmpMM:DocumentID>xmp.did:D442F517FDDCE81198CED00BFCA2B38E</xmpMM:DocumentID>
				<xmpMM:InstanceID>xmp.iid:D442F517FDDCE81198CED00BFCA2B38E</xmpMM:InstanceID>
				<xmpMM:DerivedFrom  rdf:parseType="Resource">
					<stRef:instanceID>xmp.iid:D342F517FDDCE81198CED00BFCA2B38E</stRef:instanceID>
					<stRef:documentID>xmp.did:D342F517FDDCE81198CED00BFCA2B38E</stRef:documentID>
					<stRef:originalDocumentID>uuid:65E6390686CF11DBA6E2D887CEACB407</stRef:originalDocumentID>
					<stRef:renditionClass>proof:pdf</stRef:renditionClass>
				</xmpMM:DerivedFrom>
				<xmpMM:History>
					<rdf:Seq>
						<rdf:li  rdf:parseType="Resource">
							<stEvt:action>saved</stEvt:action>
							<stEvt:instanceID>xmp.iid:83A032E9B1B9E811BB7E9F414A3CB1EC</stEvt:instanceID>
							<stEvt:when>2018-09-16T16:10:40+03:00</stEvt:when>
							<stEvt:softwareAgent>Adobe Illustrator CS6 (Windows)</stEvt:softwareAgent>
							<stEvt:changed>/</stEvt:changed>
						</rdf:li>
						<rdf:li  rdf:parseType="Resource">
							<stEvt:action>converted</stEvt:action>
							<stEvt:parameters>from application/postscript to application/vnd.adobe.illustrator</stEvt:parameters>
						</rdf:li>
						<rdf:li  rdf:parseType="Resource">
							<stEvt:action>converted</stEvt:action>
							<stEvt:parameters>from application/postscript to application/vnd.adobe.illustrator</stEvt:parameters>
						</rdf:li>
						<rdf:li  rdf:parseType="Resource">
							<stEvt:action>saved</stEvt:action>
							<stEvt:instanceID>xmp.iid:17E8E1FBA8CBE811BF67873BE66282D1</stEvt:instanceID>
							<stEvt:when>2018-10-09T12:52:07+03:00</stEvt:when>
							<stEvt:softwareAgent>Adobe Illustrator CS6 (Windows)</stEvt:softwareAgent>
							<stEvt:changed>/</stEvt:changed>
						</rdf:li>
						<rdf:li  rdf:parseType="Resource">
							<stEvt:action>converted</stEvt:action>
							<stEvt:parameters>from application/postscript to application/vnd.adobe.illustrator</stEvt:parameters>
						</rdf:li>
						<rdf:li  rdf:parseType="Resource">
							<stEvt:action>converted</stEvt:action>
							<stEvt:parameters>from application/postscript to application/vnd.adobe.illustrator</stEvt:parameters>
						</rdf:li>
						<rdf:li  rdf:parseType="Resource">
							<stEvt:action>saved</stEvt:action>
							<stEvt:instanceID>xmp.iid:1C9B5FD9E2D8E811B10AC7C01478B39D</stEvt:instanceID>
							<stEvt:when>2018-10-26T08:54:54+03:00</stEvt:when>
							<stEvt:softwareAgent>Adobe Illustrator CS6 (Windows)</stEvt:softwareAgent>
							<stEvt:changed>/</stEvt:changed>
						</rdf:li>
						<rdf:li  rdf:parseType="Resource">
							<stEvt:action>converted</stEvt:action>
							<stEvt:parameters>from application/postscript to application/vnd.adobe.illustrator</stEvt:parameters>
						</rdf:li>
						<rdf:li  rdf:parseType="Resource">
							<stEvt:action>converted</stEvt:action>
							<stEvt:parameters>from application/postscript to application/vnd.adobe.illustrator</stEvt:parameters>
						</rdf:li>
						<rdf:li  rdf:parseType="Resource">
							<stEvt:action>saved</stEvt:action>
							<stEvt:instanceID>xmp.iid:D060E3A468DCE811AA49F660F054C587</stEvt:instanceID>
							<stEvt:when>2018-10-30T19:24:23+02:00</stEvt:when>
							<stEvt:softwareAgent>Adobe Illustrator CS6 (Windows)</stEvt:softwareAgent>
							<stEvt:changed>/</stEvt:changed>
						</rdf:li>
						<rdf:li  rdf:parseType="Resource">
							<stEvt:action>converted</stEvt:action>
							<stEvt:parameters>from application/postscript to application/vnd.adobe.illustrator</stEvt:parameters>
						</rdf:li>
						<rdf:li  rdf:parseType="Resource">
							<stEvt:action>saved</stEvt:action>
							<stEvt:instanceID>xmp.iid:D342F517FDDCE81198CED00BFCA2B38E</stEvt:instanceID>
							<stEvt:when>2018-10-31T18:50:34+02:00</stEvt:when>
							<stEvt:softwareAgent>Adobe Illustrator CS6 (Windows)</stEvt:softwareAgent>
							<stEvt:changed>/</stEvt:changed>
						</rdf:li>
						<rdf:li  rdf:parseType="Resource">
							<stEvt:action>saved</stEvt:action>
							<stEvt:instanceID>xmp.iid:D442F517FDDCE81198CED00BFCA2B38E</stEvt:instanceID>
							<stEvt:when>2018-10-31T18:50:46+02:00</stEvt:when>
							<stEvt:softwareAgent>Adobe Illustrator CS6 (Windows)</stEvt:softwareAgent>
							<stEvt:changed>/</stEvt:changed>
						</rdf:li>
					</rdf:Seq>
				</xmpMM:History>
			</rdf:Description>
			<rdf:Description  rdf:about="" xmlns:illustrator="http://ns.adobe.com/illustrator/1.0/">
				<illustrator:StartupProfile>Web</illustrator:StartupProfile>
			</rdf:Description>
			
				<rdf:Description  rdf:about="" xmlns:stDim="http://ns.adobe.com/xap/1.0/sType/Dimensions#" xmlns:stFnt="http://ns.adobe.com/xap/1.0/sType/Font#" xmlns:xmpG="http://ns.adobe.com/xap/1.0/g/" xmlns:xmpTPg="http://ns.adobe.com/xap/1.0/t/pg/">
				<xmpTPg:NPages>1</xmpTPg:NPages>
				<xmpTPg:HasVisibleTransparency>False</xmpTPg:HasVisibleTransparency>
				<xmpTPg:HasVisibleOverprint>False</xmpTPg:HasVisibleOverprint>
				<xmpTPg:MaxPageSize  rdf:parseType="Resource">
					<stDim:w>800.000000</stDim:w>
					<stDim:h>600.000000</stDim:h>
					<stDim:unit>Pixels</stDim:unit>
				</xmpTPg:MaxPageSize>
				<xmpTPg:Fonts>
					<rdf:Bag>
						<rdf:li  rdf:parseType="Resource">
							<stFnt:fontName>MyriadPro-Regular</stFnt:fontName>
							<stFnt:fontFamily>Myriad Pro</stFnt:fontFamily>
							<stFnt:fontFace>Regular</stFnt:fontFace>
							<stFnt:fontType>Open Type</stFnt:fontType>
							<stFnt:versionString>Version 2.106;PS 2.000;hotconv 1.0.70;makeotf.lib2.5.58329</stFnt:versionString>
							<stFnt:composite>False</stFnt:composite>
							<stFnt:fontFileName>MyriadPro-Regular.otf</stFnt:fontFileName>
						</rdf:li>
					</rdf:Bag>
				</xmpTPg:Fonts>
				<xmpTPg:PlateNames>
					<rdf:Seq>
						<rdf:li>Cyan</rdf:li>
						<rdf:li>Yellow</rdf:li>
					</rdf:Seq>
				</xmpTPg:PlateNames>
				<xmpTPg:SwatchGroups>
					<rdf:Seq>
						<rdf:li  rdf:parseType="Resource">
							<xmpG:groupName>Default Swatch Group</xmpG:groupName>
							<xmpG:groupType>0</xmpG:groupType>
							<xmpG:Colorants>
								<rdf:Seq>
									<rdf:li  rdf:parseType="Resource">
										<xmpG:swatchName>White</xmpG:swatchName>
										<xmpG:mode>RGB</xmpG:mode>
										<xmpG:type>PROCESS</xmpG:type>
										<xmpG:red>255</xmpG:red>
										<xmpG:green>255</xmpG:green>
										<xmpG:blue>255</xmpG:blue>
									</rdf:li>
									<rdf:li  rdf:parseType="Resource">
										<xmpG:swatchName>Black</xmpG:swatchName>
										<xmpG:mode>RGB</xmpG:mode>
										<xmpG:type>PROCESS</xmpG:type>
										<xmpG:red>0</xmpG:red>
										<xmpG:green>0</xmpG:green>
										<xmpG:blue>0</xmpG:blue>
									</rdf:li>
									<rdf:li  rdf:parseType="Resource">
										<xmpG:swatchName>RGB Red</xmpG:swatchName>
										<xmpG:mode>RGB</xmpG:mode>
										<xmpG:type>PROCESS</xmpG:type>
										<xmpG:red>255</xmpG:red>
										<xmpG:green>0</xmpG:green>
										<xmpG:blue>0</xmpG:blue>
									</rdf:li>
									<rdf:li  rdf:parseType="Resource">
										<xmpG:swatchName>RGB Yellow</xmpG:swatchName>
										<xmpG:mode>RGB</xmpG:mode>
										<xmpG:type>PROCESS</xmpG:type>
										<xmpG:red>255</xmpG:red>
										<xmpG:green>255</xmpG:green>
										<xmpG:blue>0</xmpG:blue>
									</rdf:li>
									<rdf:li  rdf:parseType="Resource">
										<xmpG:swatchName>RGB Green</xmpG:swatchName>
										<xmpG:mode>RGB</xmpG:mode>
										<xmpG:type>PROCESS</xmpG:type>
										<xmpG:red>0</xmpG:red>
										<xmpG:green>255</xmpG:green>
										<xmpG:blue>0</xmpG:blue>
									</rdf:li>
									<rdf:li  rdf:parseType="Resource">
										<xmpG:swatchName>RGB Cyan</xmpG:swatchName>
										<xmpG:mode>RGB</xmpG:mode>
										<xmpG:type>PROCESS</xmpG:type>
										<xmpG:red>0</xmpG:red>
										<xmpG:green>255</xmpG:green>
										<xmpG:blue>255</xmpG:blue>
									</rdf:li>
									<rdf:li  rdf:parseType="Resource">
										<xmpG:swatchName>RGB Blue</xmpG:swatchName>
										<xmpG:mode>RGB</xmpG:mode>
										<xmpG:type>PROCESS</xmpG:type>
										<xmpG:red>0</xmpG:red>
										<xmpG:green>0</xmpG:green>
										<xmpG:blue>255</xmpG:blue>
									</rdf:li>
									<rdf:li  rdf:parseType="Resource">
										<xmpG:swatchName>RGB Magenta</xmpG:swatchName>
										<xmpG:mode>RGB</xmpG:mode>
										<xmpG:type>PROCESS</xmpG:type>
										<xmpG:red>255</xmpG:red>
										<xmpG:green>0</xmpG:green>
										<xmpG:blue>255</xmpG:blue>
									</rdf:li>
									<rdf:li  rdf:parseType="Resource">
										<xmpG:swatchName>R=193 G=39 B=45</xmpG:swatchName>
										<xmpG:mode>RGB</xmpG:mode>
										<xmpG:type>PROCESS</xmpG:type>
										<xmpG:red>193</xmpG:red>
										<xmpG:green>39</xmpG:green>
										<xmpG:blue>45</xmpG:blue>
									</rdf:li>
									<rdf:li  rdf:parseType="Resource">
										<xmpG:swatchName>R=237 G=28 B=36</xmpG:swatchName>
										<xmpG:mode>RGB</xmpG:mode>
										<xmpG:type>PROCESS</xmpG:type>
										<xmpG:red>237</xmpG:red>
										<xmpG:green>28</xmpG:green>
										<xmpG:blue>36</xmpG:blue>
									</rdf:li>
									<rdf:li  rdf:parseType="Resource">
										<xmpG:swatchName>R=241 G=90 B=36</xmpG:swatchName>
										<xmpG:mode>RGB</xmpG:mode>
										<xmpG:type>PROCESS</xmpG:type>
										<xmpG:red>241</xmpG:red>
										<xmpG:green>90</xmpG:green>
										<xmpG:blue>36</xmpG:blue>
									</rdf:li>
									<rdf:li  rdf:parseType="Resource">
										<xmpG:swatchName>R=247 G=147 B=30</xmpG:swatchName>
										<xmpG:mode>RGB</xmpG:mode>
										<xmpG:type>PROCESS</xmpG:type>
										<xmpG:red>247</xmpG:red>
										<xmpG:green>147</xmpG:green>
										<xmpG:blue>30</xmpG:blue>
									</rdf:li>
									<rdf:li  rdf:parseType="Resource">
										<xmpG:swatchName>R=251 G=176 B=59</xmpG:swatchName>
										<xmpG:mode>RGB</xmpG:mode>
										<xmpG:type>PROCESS</xmpG:type>
										<xmpG:red>251</xmpG:red>
										<xmpG:green>176</xmpG:green>
										<xmpG:blue>59</xmpG:blue>
									</rdf:li>
									<rdf:li  rdf:parseType="Resource">
										<xmpG:swatchName>R=252 G=238 B=33</xmpG:swatchName>
										<xmpG:mode>RGB</xmpG:mode>
										<xmpG:type>PROCESS</xmpG:type>
										<xmpG:red>252</xmpG:red>
										<xmpG:green>238</xmpG:green>
										<xmpG:blue>33</xmpG:blue>
									</rdf:li>
									<rdf:li  rdf:parseType="Resource">
										<xmpG:swatchName>R=217 G=224 B=33</xmpG:swatchName>
										<xmpG:mode>RGB</xmpG:mode>
										<xmpG:type>PROCESS</xmpG:type>
										<xmpG:red>217</xmpG:red>
										<xmpG:green>224</xmpG:green>
										<xmpG:blue>33</xmpG:blue>
									</rdf:li>
									<rdf:li  rdf:parseType="Resource">
										<xmpG:swatchName>R=140 G=198 B=63</xmpG:swatchName>
										<xmpG:mode>RGB</xmpG:mode>
										<xmpG:type>PROCESS</xmpG:type>
										<xmpG:red>140</xmpG:red>
										<xmpG:green>198</xmpG:green>
										<xmpG:blue>63</xmpG:blue>
									</rdf:li>
									<rdf:li  rdf:parseType="Resource">
										<xmpG:swatchName>R=57 G=181 B=74</xmpG:swatchName>
										<xmpG:mode>RGB</xmpG:mode>
										<xmpG:type>PROCESS</xmpG:type>
										<xmpG:red>57</xmpG:red>
										<xmpG:green>181</xmpG:green>
										<xmpG:blue>74</xmpG:blue>
									</rdf:li>
									<rdf:li  rdf:parseType="Resource">
										<xmpG:swatchName>R=0 G=146 B=69</xmpG:swatchName>
										<xmpG:mode>RGB</xmpG:mode>
										<xmpG:type>PROCESS</xmpG:type>
										<xmpG:red>0</xmpG:red>
										<xmpG:green>146</xmpG:green>
										<xmpG:blue>69</xmpG:blue>
									</rdf:li>
									<rdf:li  rdf:parseType="Resource">
										<xmpG:swatchName>R=0 G=104 B=55</xmpG:swatchName>
										<xmpG:mode>RGB</xmpG:mode>
										<xmpG:type>PROCESS</xmpG:type>
										<xmpG:red>0</xmpG:red>
										<xmpG:green>104</xmpG:green>
										<xmpG:blue>55</xmpG:blue>
									</rdf:li>
									<rdf:li  rdf:parseType="Resource">
										<xmpG:swatchName>R=34 G=181 B=115</xmpG:swatchName>
										<xmpG:mode>RGB</xmpG:mode>
										<xmpG:type>PROCESS</xmpG:type>
										<xmpG:red>34</xmpG:red>
										<xmpG:green>181</xmpG:green>
										<xmpG:blue>115</xmpG:blue>
									</rdf:li>
									<rdf:li  rdf:parseType="Resource">
										<xmpG:swatchName>R=0 G=169 B=157</xmpG:swatchName>
										<xmpG:mode>RGB</xmpG:mode>
										<xmpG:type>PROCESS</xmpG:type>
										<xmpG:red>0</xmpG:red>
										<xmpG:green>169</xmpG:green>
										<xmpG:blue>157</xmpG:blue>
									</rdf:li>
									<rdf:li  rdf:parseType="Resource">
										<xmpG:swatchName>R=41 G=171 B=226</xmpG:swatchName>
										<xmpG:mode>RGB</xmpG:mode>
										<xmpG:type>PROCESS</xmpG:type>
										<xmpG:red>41</xmpG:red>
										<xmpG:green>171</xmpG:green>
										<xmpG:blue>226</xmpG:blue>
									</rdf:li>
									<rdf:li  rdf:parseType="Resource">
										<xmpG:swatchName>R=0 G=113 B=188</xmpG:swatchName>
										<xmpG:mode>RGB</xmpG:mode>
										<xmpG:type>PROCESS</xmpG:type>
										<xmpG:red>0</xmpG:red>
										<xmpG:green>113</xmpG:green>
										<xmpG:blue>188</xmpG:blue>
									</rdf:li>
									<rdf:li  rdf:parseType="Resource">
										<xmpG:swatchName>R=46 G=49 B=146</xmpG:swatchName>
										<xmpG:mode>RGB</xmpG:mode>
										<xmpG:type>PROCESS</xmpG:type>
										<xmpG:red>46</xmpG:red>
										<xmpG:green>49</xmpG:green>
										<xmpG:blue>146</xmpG:blue>
									</rdf:li>
									<rdf:li  rdf:parseType="Resource">
										<xmpG:swatchName>R=27 G=20 B=100</xmpG:swatchName>
										<xmpG:mode>RGB</xmpG:mode>
										<xmpG:type>PROCESS</xmpG:type>
										<xmpG:red>27</xmpG:red>
										<xmpG:green>20</xmpG:green>
										<xmpG:blue>100</xmpG:blue>
									</rdf:li>
									<rdf:li  rdf:parseType="Resource">
										<xmpG:swatchName>R=102 G=45 B=145</xmpG:swatchName>
										<xmpG:mode>RGB</xmpG:mode>
										<xmpG:type>PROCESS</xmpG:type>
										<xmpG:red>102</xmpG:red>
										<xmpG:green>45</xmpG:green>
										<xmpG:blue>145</xmpG:blue>
									</rdf:li>
									<rdf:li  rdf:parseType="Resource">
										<xmpG:swatchName>R=147 G=39 B=143</xmpG:swatchName>
										<xmpG:mode>RGB</xmpG:mode>
										<xmpG:type>PROCESS</xmpG:type>
										<xmpG:red>147</xmpG:red>
										<xmpG:green>39</xmpG:green>
										<xmpG:blue>143</xmpG:blue>
									</rdf:li>
									<rdf:li  rdf:parseType="Resource">
										<xmpG:swatchName>R=158 G=0 B=93</xmpG:swatchName>
										<xmpG:mode>RGB</xmpG:mode>
										<xmpG:type>PROCESS</xmpG:type>
										<xmpG:red>158</xmpG:red>
										<xmpG:green>0</xmpG:green>
										<xmpG:blue>93</xmpG:blue>
									</rdf:li>
									<rdf:li  rdf:parseType="Resource">
										<xmpG:swatchName>R=212 G=20 B=90</xmpG:swatchName>
										<xmpG:mode>RGB</xmpG:mode>
										<xmpG:type>PROCESS</xmpG:type>
										<xmpG:red>212</xmpG:red>
										<xmpG:green>20</xmpG:green>
										<xmpG:blue>90</xmpG:blue>
									</rdf:li>
									<rdf:li  rdf:parseType="Resource">
										<xmpG:swatchName>R=237 G=30 B=121</xmpG:swatchName>
										<xmpG:mode>RGB</xmpG:mode>
										<xmpG:type>PROCESS</xmpG:type>
										<xmpG:red>237</xmpG:red>
										<xmpG:green>30</xmpG:green>
										<xmpG:blue>121</xmpG:blue>
									</rdf:li>
									<rdf:li  rdf:parseType="Resource">
										<xmpG:swatchName>R=199 G=178 B=153</xmpG:swatchName>
										<xmpG:mode>RGB</xmpG:mode>
										<xmpG:type>PROCESS</xmpG:type>
										<xmpG:red>199</xmpG:red>
										<xmpG:green>178</xmpG:green>
										<xmpG:blue>153</xmpG:blue>
									</rdf:li>
									<rdf:li  rdf:parseType="Resource">
										<xmpG:swatchName>R=153 G=134 B=117</xmpG:swatchName>
										<xmpG:mode>RGB</xmpG:mode>
										<xmpG:type>PROCESS</xmpG:type>
										<xmpG:red>153</xmpG:red>
										<xmpG:green>134</xmpG:green>
										<xmpG:blue>117</xmpG:blue>
									</rdf:li>
									<rdf:li  rdf:parseType="Resource">
										<xmpG:swatchName>R=115 G=99 B=87</xmpG:swatchName>
										<xmpG:mode>RGB</xmpG:mode>
										<xmpG:type>PROCESS</xmpG:type>
										<xmpG:red>115</xmpG:red>
										<xmpG:green>99</xmpG:green>
										<xmpG:blue>87</xmpG:blue>
									</rdf:li>
									<rdf:li  rdf:parseType="Resource">
										<xmpG:swatchName>R=83 G=71 B=65</xmpG:swatchName>
										<xmpG:mode>RGB</xmpG:mode>
										<xmpG:type>PROCESS</xmpG:type>
										<xmpG:red>83</xmpG:red>
										<xmpG:green>71</xmpG:green>
										<xmpG:blue>65</xmpG:blue>
									</rdf:li>
									<rdf:li  rdf:parseType="Resource">
										<xmpG:swatchName>R=198 G=156 B=109</xmpG:swatchName>
										<xmpG:mode>RGB</xmpG:mode>
										<xmpG:type>PROCESS</xmpG:type>
										<xmpG:red>198</xmpG:red>
										<xmpG:green>156</xmpG:green>
										<xmpG:blue>109</xmpG:blue>
									</rdf:li>
									<rdf:li  rdf:parseType="Resource">
										<xmpG:swatchName>R=166 G=124 B=82</xmpG:swatchName>
										<xmpG:mode>RGB</xmpG:mode>
										<xmpG:type>PROCESS</xmpG:type>
										<xmpG:red>166</xmpG:red>
										<xmpG:green>124</xmpG:green>
										<xmpG:blue>82</xmpG:blue>
									</rdf:li>
									<rdf:li  rdf:parseType="Resource">
										<xmpG:swatchName>R=140 G=98 B=57</xmpG:swatchName>
										<xmpG:mode>RGB</xmpG:mode>
										<xmpG:type>PROCESS</xmpG:type>
										<xmpG:red>140</xmpG:red>
										<xmpG:green>98</xmpG:green>
										<xmpG:blue>57</xmpG:blue>
									</rdf:li>
									<rdf:li  rdf:parseType="Resource">
										<xmpG:swatchName>R=117 G=76 B=36</xmpG:swatchName>
										<xmpG:mode>RGB</xmpG:mode>
										<xmpG:type>PROCESS</xmpG:type>
										<xmpG:red>117</xmpG:red>
										<xmpG:green>76</xmpG:green>
										<xmpG:blue>36</xmpG:blue>
									</rdf:li>
									<rdf:li  rdf:parseType="Resource">
										<xmpG:swatchName>R=96 G=56 B=19</xmpG:swatchName>
										<xmpG:mode>RGB</xmpG:mode>
										<xmpG:type>PROCESS</xmpG:type>
										<xmpG:red>96</xmpG:red>
										<xmpG:green>56</xmpG:green>
										<xmpG:blue>19</xmpG:blue>
									</rdf:li>
									<rdf:li  rdf:parseType="Resource">
										<xmpG:swatchName>R=66 G=33 B=11</xmpG:swatchName>
										<xmpG:mode>RGB</xmpG:mode>
										<xmpG:type>PROCESS</xmpG:type>
										<xmpG:red>66</xmpG:red>
										<xmpG:green>33</xmpG:green>
										<xmpG:blue>11</xmpG:blue>
									</rdf:li>
								</rdf:Seq>
							</xmpG:Colorants>
						</rdf:li>
						<rdf:li  rdf:parseType="Resource">
							<xmpG:groupName>Grays</xmpG:groupName>
							<xmpG:groupType>1</xmpG:groupType>
							<xmpG:Colorants>
								<rdf:Seq>
									<rdf:li  rdf:parseType="Resource">
										<xmpG:swatchName>R=0 G=0 B=0</xmpG:swatchName>
										<xmpG:mode>RGB</xmpG:mode>
										<xmpG:type>PROCESS</xmpG:type>
										<xmpG:red>0</xmpG:red>
										<xmpG:green>0</xmpG:green>
										<xmpG:blue>0</xmpG:blue>
									</rdf:li>
									<rdf:li  rdf:parseType="Resource">
										<xmpG:swatchName>R=26 G=26 B=26</xmpG:swatchName>
										<xmpG:mode>RGB</xmpG:mode>
										<xmpG:type>PROCESS</xmpG:type>
										<xmpG:red>26</xmpG:red>
										<xmpG:green>26</xmpG:green>
										<xmpG:blue>26</xmpG:blue>
									</rdf:li>
									<rdf:li  rdf:parseType="Resource">
										<xmpG:swatchName>R=51 G=51 B=51</xmpG:swatchName>
										<xmpG:mode>RGB</xmpG:mode>
										<xmpG:type>PROCESS</xmpG:type>
										<xmpG:red>51</xmpG:red>
										<xmpG:green>51</xmpG:green>
										<xmpG:blue>51</xmpG:blue>
									</rdf:li>
									<rdf:li  rdf:parseType="Resource">
										<xmpG:swatchName>R=77 G=77 B=77</xmpG:swatchName>
										<xmpG:mode>RGB</xmpG:mode>
										<xmpG:type>PROCESS</xmpG:type>
										<xmpG:red>77</xmpG:red>
										<xmpG:green>77</xmpG:green>
										<xmpG:blue>77</xmpG:blue>
									</rdf:li>
									<rdf:li  rdf:parseType="Resource">
										<xmpG:swatchName>R=102 G=102 B=102</xmpG:swatchName>
										<xmpG:mode>RGB</xmpG:mode>
										<xmpG:type>PROCESS</xmpG:type>
										<xmpG:red>102</xmpG:red>
										<xmpG:green>102</xmpG:green>
										<xmpG:blue>102</xmpG:blue>
									</rdf:li>
									<rdf:li  rdf:parseType="Resource">
										<xmpG:swatchName>R=128 G=128 B=128</xmpG:swatchName>
										<xmpG:mode>RGB</xmpG:mode>
										<xmpG:type>PROCESS</xmpG:type>
										<xmpG:red>128</xmpG:red>
										<xmpG:green>128</xmpG:green>
										<xmpG:blue>128</xmpG:blue>
									</rdf:li>
									<rdf:li  rdf:parseType="Resource">
										<xmpG:swatchName>R=153 G=153 B=153</xmpG:swatchName>
										<xmpG:mode>RGB</xmpG:mode>
										<xmpG:type>PROCESS</xmpG:type>
										<xmpG:red>153</xmpG:red>
										<xmpG:green>153</xmpG:green>
										<xmpG:blue>153</xmpG:blue>
									</rdf:li>
									<rdf:li  rdf:parseType="Resource">
										<xmpG:swatchName>R=179 G=179 B=179</xmpG:swatchName>
										<xmpG:mode>RGB</xmpG:mode>
										<xmpG:type>PROCESS</xmpG:type>
										<xmpG:red>179</xmpG:red>
										<xmpG:green>179</xmpG:green>
										<xmpG:blue>179</xmpG:blue>
									</rdf:li>
									<rdf:li  rdf:parseType="Resource">
										<xmpG:swatchName>R=204 G=204 B=204</xmpG:swatchName>
										<xmpG:mode>RGB</xmpG:mode>
										<xmpG:type>PROCESS</xmpG:type>
										<xmpG:red>204</xmpG:red>
										<xmpG:green>204</xmpG:green>
										<xmpG:blue>204</xmpG:blue>
									</rdf:li>
									<rdf:li  rdf:parseType="Resource">
										<xmpG:swatchName>R=230 G=230 B=230</xmpG:swatchName>
										<xmpG:mode>RGB</xmpG:mode>
										<xmpG:type>PROCESS</xmpG:type>
										<xmpG:red>230</xmpG:red>
										<xmpG:green>230</xmpG:green>
										<xmpG:blue>230</xmpG:blue>
									</rdf:li>
									<rdf:li  rdf:parseType="Resource">
										<xmpG:swatchName>R=242 G=242 B=242</xmpG:swatchName>
										<xmpG:mode>RGB</xmpG:mode>
										<xmpG:type>PROCESS</xmpG:type>
										<xmpG:red>242</xmpG:red>
										<xmpG:green>242</xmpG:green>
										<xmpG:blue>242</xmpG:blue>
									</rdf:li>
								</rdf:Seq>
							</xmpG:Colorants>
						</rdf:li>
						<rdf:li  rdf:parseType="Resource">
							<xmpG:groupName>Web Color Group</xmpG:groupName>
							<xmpG:groupType>1</xmpG:groupType>
							<xmpG:Colorants>
								<rdf:Seq>
									<rdf:li  rdf:parseType="Resource">
										<xmpG:swatchName>R=63 G=169 B=245</xmpG:swatchName>
										<xmpG:mode>RGB</xmpG:mode>
										<xmpG:type>PROCESS</xmpG:type>
										<xmpG:red>63</xmpG:red>
										<xmpG:green>169</xmpG:green>
										<xmpG:blue>245</xmpG:blue>
									</rdf:li>
									<rdf:li  rdf:parseType="Resource">
										<xmpG:swatchName>R=122 G=201 B=67</xmpG:swatchName>
										<xmpG:mode>RGB</xmpG:mode>
										<xmpG:type>PROCESS</xmpG:type>
										<xmpG:red>122</xmpG:red>
										<xmpG:green>201</xmpG:green>
										<xmpG:blue>67</xmpG:blue>
									</rdf:li>
									<rdf:li  rdf:parseType="Resource">
										<xmpG:swatchName>R=255 G=147 B=30</xmpG:swatchName>
										<xmpG:mode>RGB</xmpG:mode>
										<xmpG:type>PROCESS</xmpG:type>
										<xmpG:red>255</xmpG:red>
										<xmpG:green>147</xmpG:green>
										<xmpG:blue>30</xmpG:blue>
									</rdf:li>
									<rdf:li  rdf:parseType="Resource">
										<xmpG:swatchName>R=255 G=29 B=37</xmpG:swatchName>
										<xmpG:mode>RGB</xmpG:mode>
										<xmpG:type>PROCESS</xmpG:type>
										<xmpG:red>255</xmpG:red>
										<xmpG:green>29</xmpG:green>
										<xmpG:blue>37</xmpG:blue>
									</rdf:li>
									<rdf:li  rdf:parseType="Resource">
										<xmpG:swatchName>R=255 G=123 B=172</xmpG:swatchName>
										<xmpG:mode>RGB</xmpG:mode>
										<xmpG:type>PROCESS</xmpG:type>
										<xmpG:red>255</xmpG:red>
										<xmpG:green>123</xmpG:green>
										<xmpG:blue>172</xmpG:blue>
									</rdf:li>
									<rdf:li  rdf:parseType="Resource">
										<xmpG:swatchName>R=189 G=204 B=212</xmpG:swatchName>
										<xmpG:mode>RGB</xmpG:mode>
										<xmpG:type>PROCESS</xmpG:type>
										<xmpG:red>189</xmpG:red>
										<xmpG:green>204</xmpG:green>
										<xmpG:blue>212</xmpG:blue>
									</rdf:li>
								</rdf:Seq>
							</xmpG:Colorants>
						</rdf:li>
					</rdf:Seq>
				</xmpTPg:SwatchGroups>
			</rdf:Description>
			<rdf:Description  rdf:about="" xmlns:pdf="http://ns.adobe.com/pdf/1.3/">
				<pdf:Producer>Adobe PDF library 10.01</pdf:Producer>
			</rdf:Description>
		</rdf:RDF>
	</x:xmpmeta>
	<sfw  xmlns="&ns_sfw;">
		<slices></slices>
		<sliceSourceBounds  bottomLeftOrigin="true" height="719" width="933" x="-43.5" y="-70"></sliceSourceBounds>
	</sfw>
</metadata>
<g class="st0">
	<rect x="-157" y="-155" class="st1" width="932" height="693"/>
</g>
<g>
	<g id="Layer_5" class="st0">
		<rect x="-114.5" y="-175.5" class="st2" width="827" height="718"/>
	</g>
	<g>
		<rect x="-113" y="-127" class="st3" width="800" height="600"/>
	</g>
	<g id="Layer_4">
		<g>
			<path class="st4" d="M58,76.8c-3.1,5.3-8.1,8.8-14.2,10.6c-15.5,4.5-25.1-4-28.2-14.4c-3.1-10.5,0.9-23.3,16.1-27.7
				c5.7-1.6,11.7-1.1,17.1,1.7l-3.9,6.4c-3.5-1.8-7.6-1.9-11.2-0.9c-10.1,2.9-12.4,11.4-10.4,18.2c2,6.7,8,12.5,18.3,9.5
				c3.6-1.1,7.4-3.7,9.3-7.1L58,76.8z"/>
			<path class="st4" d="M62.7,38.8l6.6,34.1l22-4.3l1.4,7.2l-30.1,5.8l-8-41.2L62.7,38.8z"/>
			<path class="st4" d="M127.5,28.6l3.2,23.8c1.7,12.3-5.3,19.7-16.1,21.1c-10.4,1.4-20-3.5-21.7-16l-3.2-23.8l8.1-1.1l3.2,23.8
				c1,7.5,6,10.9,12.7,10s10-5.8,9-12.9l-3.2-23.8L127.5,28.6z"/>
			<path class="st4" d="M173.3,36.6c0.3,3.2-1.1,6.5-4.9,8.6c5.2,1.1,7.5,6.1,7.8,8.7c0.8,9.3-6.2,12.9-15.2,13.7
				c-6.9,0.6-13.7,1.2-20.6,1.8l-3.6-41.8c6.8-0.6,13.7-1.2,20.6-1.8C165.8,25,172.6,28.1,173.3,36.6z M146.2,43.6l12.5-1.1
				c5.1-0.4,6.6-2.7,6.4-5.1c-0.2-1.9-2.1-5-7.3-4.5L145.3,34L146.2,43.6z M147.8,61.3l12.5-1.1c3.3-0.3,8-1.8,7.7-5.7
				c-0.3-3.8-5.3-5.3-8.6-5l-12.5,1.1L147.8,61.3z"/>
			<path class="st4" d="M218.8,22.1l1.1,24c0.6,12.4-7,19.1-18,19.6c-10.4,0.5-19.6-5.2-20.2-17.9l-1.1-24l8.1-0.4l1.1,24
				c0.4,7.6,5,11.4,11.8,11s10.4-4.9,10.1-12.1l-1.1-24L218.8,22.1z"/>
			<path class="st4" d="M236,21.7l0.5,34.7l22.4-0.3l0.1,7.3l-30.6,0.4l-0.5-42L236,21.7z"/>
			<path class="st4" d="M304.7,32.4c-1.4-2.4-5.5-4.8-10.2-5c-6.1-0.2-9.1,2.2-9.2,5.3c-0.1,3.7,4.4,4.8,9.6,5.5
				c9.1,1.3,17.4,3.8,17.2,13.9c-0.3,9.4-9,13.1-18.7,12.9c-8.9-0.2-15.7-3.1-18.7-10.8l6.9-3.2c1.8,4.7,6.8,6.9,12.1,7
				c5.2,0.1,10.1-1.5,10.2-6c0.1-4-4.1-5.7-9.9-6.5c-8.9-1.3-17-3.8-16.8-13.2c0.2-8.6,9.2-11.9,17.2-11.8
				c6.8,0.2,13.8,2.2,16.9,8.8L304.7,32.4z"/>
			<path class="st4" d="M338.9,53.7l-12.3-0.8l-0.8,12.3l-8.2-0.5l2.6-41.9c6.8,0.4,13.7,0.8,20.5,1.2C362,25.4,360.2,55,338.9,53.7
				z M327.1,45.6l12.3,0.8c10.5,0.7,11.4-14.2,0.9-14.9L328,30.7L327.1,45.6z"/>
			<path class="st4" d="M404,51.3c-1.3,10.8-9.3,20.8-24.5,19.2s-21.1-12.9-20-23.9c1.2-11,9.7-21.2,24.6-19.6
				C399,28.5,405.3,40.4,404,51.3z M367.5,47.5c-0.5,6.9,2.5,14.6,12.7,15.7c10.2,1.1,14.8-5.9,15.7-12.7c0.9-7-2.4-15.3-12.6-16.4
				C373.1,33,368.1,40.5,367.5,47.5z"/>
			<path class="st4" d="M445.3,78.9l-9.6-1.6l-10.2-15.9l-7.8-1.3L415.4,74l-8.1-1.3l6.8-41.5c6.8,1.1,13.6,2.3,20.4,3.4
				c10.1,1.7,14.4,9.1,13.2,16.3c-0.9,5.7-4.6,11-13,11.2l10.7,16.3L445.3,78.9z M421,39.8l-2.2,13.3l12.3,2
				c5.2,0.8,7.9-2.1,8.5-5.4c0.5-3.3-1.2-7-6.3-7.8L421,39.8z"/>
			<path class="st4" d="M468.9,48.7l-13.4-3.3l1.7-7c12.2,3,22.5,5.5,34.8,8.5l-1.7,7l-13.4-3.3l-8.2,33.8l-8-1.9L468.9,48.7z"/>
			<path class="st4" d="M486,89.3l13.1-39.9l7.7,2.5l-13.1,39.9L486,89.3z"/>
			<path class="st4" d="M520.7,103.8l-7.5-4l4.1-45.7l8.1,4.4l-4,35L548.5,71l8.1,4.4L520.7,103.8z"/>
		</g>
		<rect x="180.5" y="249" class="st5" width="185.5" height="23"/>
		<text transform="matrix(1 0 0 1 190.4761 266.04)" class="st6 st7 st8">www.cslivone.ro</text>
	</g>
	<g>
		<g>
			<path class="st4" d="M98,165.3v57.3h35.7v12.1H84.9v-69.4H98L98,165.3z"/>
			<path class="st4" d="M149.5,167.4c-2.2,0-4.4-0.2-6.5-0.6v67.9h13v-67.9C153.9,167.2,151.7,167.4,149.5,167.4z"/>
		</g>
		<g>
			<path class="st4" d="M333.9,200.4c-0.2,18-11.2,35.9-35.6,35.9s-35.7-17.6-35.7-35.8c0-18.2,11.7-36.6,35.7-36.6
				C322.2,163.9,334.1,182.3,333.9,200.4z M275.5,200.7c0.3,11.4,6.4,23.6,22.8,23.6s22.5-12.3,22.7-23.7
				c0.2-11.7-6.3-24.8-22.7-24.8C281.9,175.8,275.2,189,275.5,200.7z"/>
			<path class="st4" d="M389.1,165.2h13.1v69.5h-8.1v0.1l-36.5-46.9v46.8h-13.1v-69.4h10.6l34,43V165.2z"/>
			<path class="st4" d="M466,234.7h-52c0-23.1,0-46.3,0-69.4h52V178h-39v16h37.6v12.2H427v15.7h39V234.7z"/>
		</g>
		<g>
			<path class="st9" d="M219.4,179.3l-4.5,4.1L187,131.9l-0.2-0.4c-0.6,14-21.1,32.1-21.1,32.1c25.3,15.7,47.9,75.8,47.9,75.8
				l1.9-4.7c33-72.3,158-156.3,157.8-156.2C368,81.4,233,164.4,219.4,179.3z"/>
		</g>
	</g>
	<g id="Layer_3">
		<ellipse class="st10" cx="149.4" cy="130.5" rx="30.8" ry="30.7"/>
		<g>
			<path class="st9" d="M179.9,126.4c-1.3-8.7-5.4-15.7-12.5-20.9c-3.8-2.8-8.1-4.6-12.8-5.4c-0.6-0.1-1.2-0.2-1.8-0.2
				c-0.9,0-1.9-0.1-2.9-0.1c-0.8,0-1.7,0-2.5,0c-0.2,0-0.3,0-0.5,0c-5.2,0.4-10,2.1-14.3,4.9c-5.9,3.9-10.1,9.3-12.3,16.1
				c-0.9,2.5-1.3,5.1-1.5,7.8c0,0.1,0,0.1-0.1,0.2v3.4c0.1,0.3,0.1,0.6,0.1,0.8c0.5,5.9,2.6,11.2,6.1,16c3,4,6.7,7,11.2,9.2
				c2.8,1.4,5.8,2.2,8.9,2.7h0.1c0,0,0,0,0-0.1c0.7-0.6,1.4-1.1,2.2-1.6c5.5-4,11-7.8,16.4-11.8c6.9-5,12.2-11.5,15.7-19.3
				c0.2-0.4,0.3-0.8,0.5-1.1C180,126.8,180,126.6,179.9,126.4z M153.3,100.8c-2.4,0.8-4.1,2.5-5.2,4.8c-3,6.5-5.8,13-8.7,19.6
				c-1.9,4.4-4.4,8.5-7.5,12.2c-0.9,1.1-1.9,2.1-3.2,2.7c-1.6,0.8-3.3,1.2-5,1c-2.1-0.3-3.5-1.7-4-3.8v-0.1c0.6,0.5,1.3,0.9,2,1.2
				c2.5,1.1,4.8,0.7,6.9-1.1c1.8-1.6,3.3-3.5,4.6-5.5c1.7-2.6,3-5.4,4.2-8.2c2.4-5.7,4.9-11.3,7.6-16.8c0.2-0.4,0.5-0.9,0.7-1.3
				c1.4-2.6,3.6-4,6.4-4.6c0.8-0.2,1.7-0.2,2.5-0.1C154.2,100.5,153.8,100.6,153.3,100.8z"/>
			<path class="st4" d="M180.2,128.6L180.2,128.6c-0.1,1.2-0.2,2.4-0.5,3.6c-0.8,2.8-2.3,5.2-4.1,7.4c-2.5,3.1-5.3,5.7-8.5,8
				c-3.3,2.5-6.7,4.7-10,7.1c-3,2.1-6.1,4.2-9.1,6.4c0.2,0,0.4,0,0.7,0c2.9,0.1,5.8-0.2,8.6-1c5-1.3,9.4-3.7,13.1-7.2
				c5.8-5.4,9.1-12.2,9.8-20.1c0-0.3,0-0.6,0.1-0.8L180.2,128.6L180.2,128.6z"/>
		</g>
	</g>
</g>
</svg>
