<?xml version="1.0" encoding="utf-8"?>
<!-- Generator: Adobe Illustrator 16.0.0, SVG Export Plug-In . SVG Version: 6.00 Build 0)  -->
<!DOCTYPE svg PUBLIC "-//W3C//DTD SVG 1.1//EN" "http://www.w3.org/Graphics/SVG/1.1/DTD/svg11.dtd" [
	<!ENTITY ns_extend "http://ns.adobe.com/Extensibility/1.0/">
	<!ENTITY ns_ai "http://ns.adobe.com/AdobeIllustrator/10.0/">
	<!ENTITY ns_graphs "http://ns.adobe.com/Graphs/1.0/">
	<!ENTITY ns_vars "http://ns.adobe.com/Variables/1.0/">
	<!ENTITY ns_imrep "http://ns.adobe.com/ImageReplacement/1.0/">
	<!ENTITY ns_sfw "http://ns.adobe.com/SaveForWeb/1.0/">
	<!ENTITY ns_custom "http://ns.adobe.com/GenericCustomNamespace/1.0/">
	<!ENTITY ns_adobe_xpath "http://ns.adobe.com/XPath/1.0/">
]>
<svg version="1.1" id="Layer_1" xmlns:x="&ns_extend;" xmlns:i="&ns_ai;" xmlns:graph="&ns_graphs;"
	 xmlns="http://www.w3.org/2000/svg" xmlns:xlink="http://www.w3.org/1999/xlink" x="0px" y="0px" width="600.09px" height="300px"
	 viewBox="0 0 600.09 300" enable-background="new 0 0 600.09 300" xml:space="preserve">
<metadata><?xpacket begin="﻿" id="W5M0MpCehiHzreSzNTczkc9d"?>
<x:xmpmeta xmlns:x="adobe:ns:meta/" x:xmptk="Adobe XMP Core 5.3-c011 66.145661, 2012/02/06-14:56:27        ">
   <rdf:RDF xmlns:rdf="http://www.w3.org/1999/02/22-rdf-syntax-ns#">
      <rdf:Description rdf:about=""
            xmlns:dc="http://purl.org/dc/elements/1.1/">
         <dc:format>image/svg+xml</dc:format>
         <dc:title>
            <rdf:Alt>
               <rdf:li xml:lang="x-default">Web</rdf:li>
            </rdf:Alt>
         </dc:title>
      </rdf:Description>
      <rdf:Description rdf:about=""
            xmlns:xmp="http://ns.adobe.com/xap/1.0/"
            xmlns:xmpGImg="http://ns.adobe.com/xap/1.0/g/img/">
         <xmp:CreatorTool>Adobe Illustrator CS6 (Windows)</xmp:CreatorTool>
         <xmp:CreateDate>2018-11-02T12:20:08+02:00</xmp:CreateDate>
         <xmp:ModifyDate>2018-11-02T12:20:08+02:00</xmp:ModifyDate>
         <xmp:MetadataDate>2018-11-02T12:20:08+02:00</xmp:MetadataDate>
         <xmp:Thumbnails>
            <rdf:Alt>
               <rdf:li rdf:parseType="Resource">
                  <xmpGImg:width>256</xmpGImg:width>
                  <xmpGImg:height>120</xmpGImg:height>
                  <xmpGImg:format>JPEG</xmpGImg:format>
                  <xmpGImg:image>/9j/4AAQSkZJRgABAgEASABIAAD/7QAsUGhvdG9zaG9wIDMuMAA4QklNA+0AAAAAABAASAAAAAEA&#xA;AQBIAAAAAQAB/+4ADkFkb2JlAGTAAAAAAf/bAIQABgQEBAUEBgUFBgkGBQYJCwgGBggLDAoKCwoK&#xA;DBAMDAwMDAwQDA4PEA8ODBMTFBQTExwbGxscHx8fHx8fHx8fHwEHBwcNDA0YEBAYGhURFRofHx8f&#xA;Hx8fHx8fHx8fHx8fHx8fHx8fHx8fHx8fHx8fHx8fHx8fHx8fHx8fHx8fHx8f/8AAEQgAeAEAAwER&#xA;AAIRAQMRAf/EAaIAAAAHAQEBAQEAAAAAAAAAAAQFAwIGAQAHCAkKCwEAAgIDAQEBAQEAAAAAAAAA&#xA;AQACAwQFBgcICQoLEAACAQMDAgQCBgcDBAIGAnMBAgMRBAAFIRIxQVEGE2EicYEUMpGhBxWxQiPB&#xA;UtHhMxZi8CRygvElQzRTkqKyY3PCNUQnk6OzNhdUZHTD0uIIJoMJChgZhJRFRqS0VtNVKBry4/PE&#xA;1OT0ZXWFlaW1xdXl9WZ2hpamtsbW5vY3R1dnd4eXp7fH1+f3OEhYaHiImKi4yNjo+Ck5SVlpeYmZ&#xA;qbnJ2en5KjpKWmp6ipqqusra6voRAAICAQIDBQUEBQYECAMDbQEAAhEDBCESMUEFURNhIgZxgZEy&#xA;obHwFMHR4SNCFVJicvEzJDRDghaSUyWiY7LCB3PSNeJEgxdUkwgJChgZJjZFGidkdFU38qOzwygp&#xA;0+PzhJSktMTU5PRldYWVpbXF1eX1RlZmdoaWprbG1ub2R1dnd4eXp7fH1+f3OEhYaHiImKi4yNjo&#xA;+DlJWWl5iZmpucnZ6fkqOkpaanqKmqq6ytrq+v/aAAwDAQACEQMRAD8A9U4q7FXYq7FXYq7FXYq7&#xA;FXYq7FXYq7FXYq0jo6h0YMjbhlNQfpGKt4q5mVVLMQFAqSdgAMVQFt5g0G6uDbWupWs9wCAYYp43&#xA;ep6fCrE5YcUgLILETB6o/K2TsVdirsVdirsVdirsVdirsVdirsVdirsVdirsVdirsVUmvLRbhbZp&#xA;4xcuCUgLDmQNyQta4eE1fRFquBLDPL/5p6HrfnjU/J9va3UOoaWsxmmnEYicwSrEwj4O7GvMMtQN&#xA;utMzMujlDEMhIqTTHOJSMe5M/wAwNf1Dy95N1TW9Ohjnu7CL1kimDGMgMOfLiVOyVPXKtLiGTIIn&#xA;kWWWRjEkPPpvzT80X/5EXHnS0aC112CUJL6MXKJR9cWL4UlMn+6nFak5njRwjqhjO8f2OP48ji4u&#xA;rGfLI/5yN86aJba1Y+ZLW20699T0WcRQkBHaNtobd22ZCB3zIzflMMjExJI/He1w8aYsHZNPy18/&#xA;fmHpv5mP+X3nS4TUZpFb0bleBZGSA3CkOipzR4x+2OVadNxler02KWHxcYr+2mWHLMT4JLfyt1nW&#xA;X/Pnzjpl1qM9xYoL97e1lldo0IvYuARGJC8UcgU7Y6zHH8rCQG+33LhkfFkL7/vZ/wDnWkrflb5h&#xA;9JuDrbq3KpGyyox6ewzB7P8A7+PvcjUf3ZeQySs//OKEakCkVzwWngdRLb/S2bUD/Dvh/vXD/wAh&#xA;+O967+Scxl/Kzy6xFKW7JT/Uldf4Zqu0BWeXvcvTf3YZvmG3vAf+cn9W1JLzy9o0t1LZ+X70u9+8&#xA;YJDFZEBLAfb9JTyC+J+WbzseAqUquQ5OBrZGwOiin5H/AJSa5pir5R808tY48raRrqGUtIBUepCq&#xA;pIlT4UI8Ml/KOeEv3kPT7kflsch6Tuyv8wrDXPLH5C6jZahqz6pqVqlvGNQIMUhD3cQUV5MxKKac&#xA;iamm+YullHJqgQOEG9vg25QY4iCbLAfIv5ReffMXlKx1+z853Ngb9XdbXncbcJWjFXSUVqEr9n2z&#xA;O1OuxY8hgYA17v1NGLBOUbEk/wDyz86eevL35kyfl15wvjqnqBvqt5I5ldXERnQiVvjZJE7PuDTp&#xA;vlGr0+LJh8bGOH8U2Yckoz4Jbq/mn85fOeuea5vKv5Z2KXUtqWW51F1VwSh4uycyIkjU7cn+0enu&#xA;MOgxwhx5jV9FnqJSlwwS/UPOn/OQvkZF1PzRaW+s6KrKLmRFhAUE0+3bCNo/AMyFa5OOn0mb0wJj&#xA;L8d6DkzQ3luHrWl/mDo2qeQ5fOVkC9lDaTXUsDHi6NbozSRN1owK0r9I2zVz0so5fDPO6+blRygw&#xA;4g830z/nKzynKANS0i+tGPUwmK4UH5s0J/DNhPsXIOUgfsceOuj1D0jyb+ZPk7zgsg0O/E1xEOU1&#xA;pIrRTKtacuDgVXfqtRmvz6TJi+oORjzRnyLIEvrJ7p7RLiJruMAyW4dTIoIqCyV5CoOUcJq62bLC&#xA;vkUuxV2KuxV2KuxV2KvF/wAwPzo8xN5obyZ+X1iL/WY2aK5uyvqBZF+2sakhB6f7bv8ACPxzcaXs&#xA;+HB4mU1Fw8uoPFww5u8rab/zkpDr+nya1qNtJpU0qnUlcWr+nEKlhxjSNuRpxHptSpHbBmnozA8I&#xA;PF05rAZrFnZIvMxPl3/nKDSr77MWs/VxQbA/WYmsv+TiVy/D+80RH82/s3a5+nOD3/2PoXNC7B8+&#xA;Wp/Q/wDzlXNH9mHU1ah339WyEn4yx0zen16H3frdeNs/v/U9p87WSX3k3XbN+lxp91HXwLQsAe/Q&#xA;75qNPLhyRPmHNyC4keT5+/LiX69/zj15205tzaSyXCk7fD6cUgG3+VCc3urHDq8Z7/2uBh3wyCn+&#xA;VXkX8yvMvlCGfR/OUujaPDLJBFZwSzqyEOZH2iMYFWk5fa3rh1upw48lShxS+CMGKco7SoLdK03W&#xA;fyr/ADj0tNXmg12TWuERvmLtcLHdS+iZPjJKychvWtVqK7mjOcdTpzw+nh6e5Yg4sgve030nULPy&#xA;r/zkxq51dls7fUxIkNw5CRA3KJNGxY7UZl4/62VTicujHDvX6GcSI5jfV6X+eGvaPp35a6vFeToJ&#xA;dQgMFlByAeWSQgKUHUhftH2Ga7s7FKWaNdObkamQEDbyqLTbmL/nFO6kmBQPcrcxKRuUa+jjHyqa&#xA;nNmZg64V3focWv3H472f/k3538maf+Weh2d/r+m2l3DFIJbee7gikQmdyAyO4YbGu+YOv0+SWaRE&#xA;ZEe49zkafJEQAJD0fSdf0LWI5JdI1G11GOIhZXtJo51ViKgMY2ahzXzxSh9QI97kRkDyNsH/ADF8&#xA;6/liNatfJfnG39UXgWUzXEZW2gDBgkhnJVl5EceSdN6kb5m6XT5uE5MZ5fP5NOXJC+GTAfzH/Jn8&#xA;qNN8rX2u6Tqp064t4WmsoxcpPFNIoqkShi0hLmigh9uuZ2k1+eUxGQvv2cfNp8YjYKS3XmbW9W/5&#xA;xpuG1aR7iSLU47K2uJiWd4I2jlUlju3FuSfIZcMMY6wcP822BmTh370d5JvP+cidN8paWmgaTa3W&#xA;hC3EliWNsWaOWrgkGaOStWr0yvUR0ksh4yRK9+f6mWM5hEUNk98j/ld5/PmTU/PvnGRR5h+rzjTr&#xA;SJ0dxO8JiRj6RMSqiHiignx7b06jWYuAYsf0Xuzx4Z2Zy5qH/OJ5079FeYAKfpT6xCZq05ehwPp+&#xA;9OfPJdtXxR/m0jQ1R73r3nqXTovJeuPqPH6kLG49cP0KmJhT5k7D3zU6YHxI1zsOZlrhN9z508l6&#xA;hdad/wA46eb5XJWK6vVtrUGo5GYQRy8f9gfwzoNRES1cPIfrddjNYZMi/Jvzp+UVh5DtdF8xXNp+&#xA;kWlnmu4Ly1Z0q0h4fvGjaM/u1XvmPr9PnllMoA15Fs0+TGIUeaT6JJ5buv8AnInTpPIKcNKBrdG3&#xA;UpbkCF/rBRSAFjpQdKcunbLcgmNIfF+r8UwjwnMODkzr83/yb8vXw1nzw+q3ljqNvbtcycSjxE20&#xA;IVFRaI6khAPt9cwtDr5x4cVAi/vb9Rpwble7z/8ALVfz+1Ty++s+Wdaa5s4J2tls72ZZXYxqrHgL&#xA;lXQL8dPtjfM/V/lYz4Zx38v2NGHxSLiXqWu/m3qPkfy95bbzfp/1nX9VEn162s2RTEIyN1Wrqx+N&#xA;VpzAJrQ5rMehGacvDNRjytyZZzADiG5Z9qfmbRNJjsn1e6TTvr8ght/rJCD1WUt6bMKopoD1amYM&#xA;MMpXwi6ciUwOeyZgggEGoO4Iytk7FXYq7FXzx/zjdJaweefOFpqHw66x/d8/t8Y55BdCvjzMdc33&#xA;awJxQI+n9mzr9J9Ur5voWWWKGJ5pnWOKNS8kjkKqqoqWYnYADNEBbsHzp/zkXqGn3M3lLznoV1De&#xA;wRSSRC6gcOvOFo54lLLWhHx1B3Gb/sqJHHjkK/FOu1ZB4ZBnOp/85KfljZpW3nutQen2La3I38Kz&#xA;GFdvY5hQ7JzHnQ+LfLWQDDvNuk6v+YkGkfmj5BgeHV7F2hnsZGQTE2spMUi1PBjQ/EtdwQN8y8E4&#xA;4DLBl+k9fe05InJU4c12q+e/z88zaVN5ft/J8mnT3aG3ur4wTQjg44vwe4KxpyHfkfbxxhptLjlx&#xA;md10/sWWXLIVw0zryR+VE3l78rtU8sSTRyarrVvci8mBIiWa5g9FVDULcEFN+PiadswtRrfEzif8&#xA;MSPsLfjwcMDHqWBaJ/zj9+aen2X1GDzkNMs2bm9tYzXYjLPQOSo9AMaKOuZuTtPBI2YWfOv2tEdL&#xA;kAriplPkr/nHnT9G8wQ+Yde1ebXtTt5BNB6iFEEy7rI5Z5XkKkVXcb5jajtQzhwRjwhtx6QA2TZZ&#xA;d5//ACr8p+eIov0tE8V7ACsF/bMEmVTvwJIZWWu9GG3alTmLptbkw/Ty7m3LgjPmwjR/+cW/JNpe&#xA;LcX99eajEjchasUijanZyi8yP9VhmZk7ZyEUAA0x0UQd3puv+UND1zyzJ5au4THpEiRR+hAfS4pA&#xA;6vGqU+yAYxmuxZ5Qnxj6nJljEo8PRgn/AELV+V/++Lv/AKSG/pmb/K2by+TR+Tgy3yP+XXlryVDd&#xA;xaGkqJesjziaQybxghaV6fazF1Gqnmri6NuPDGHJd52/Lryp5ztY4dctTJJBX6vdRMY5o+XXi47H&#xA;wYEe2DT6qeE3EpyYoz5sDtv+cW/y8inEkl3qdxGpB9GSaEKfEMUhRvuIzOPbOUjlH8fFxxooebMv&#xA;Mv5W+Vtd8o23lPjLpukWkiS28dkUVlZAwFTIsta8yWruT3zEw6ycMhyc5Hvbp4Yyjw8gyDQNGttE&#xA;0PT9HtmZ7fT7eK2jd6cmESBOTUoKtSpzHy5DORkepbIx4QAj8gyeJ+a/yN8xWHmabzR+XGqrpN5O&#xA;WeexdmjTk55OI2CupRjv6brxB+gDcYO0YShwZhxDvcKemIlxQNJXqP5Y/nz5zMWn+btdt4NHRleV&#xA;Y/ToxHf0reOMSN3HNgB2y2Gs0uHfHE8X472Jw5Z7SOyZ/nH5EvdN/KvSfKnlHTLm+ht7tJLgQIZZ&#xA;WVI5C8kioKlnkcHYew7ZVoNSJZzkyEDZlqMRGMRiF/mr8iNIv/yzsotL06K1812NlBIZYlEb3E0c&#xA;IE0cvSrSGtCf2qdq44e0pRzHiNwJPwWemBhsPU7/AJxo1PytcaFc2Vvp8Fj5nsf3eoyBaTTw1+CQ&#xA;lvioD8LqNgwr3GPa8JiQJNwPLyXRmNVXqTj/AJyR1wad+Wdxaq1JdVuIbRadeIb1nPypFxPzyrsn&#xA;HxZgf5otnq5VD3p7+TOhjRvyz0K2K0lntxdy+Ja6Jm39wrhfoyjX5OPNI+dfJs08agHlesf875/z&#xA;khbWA/eaZ5cKiUfs0sj6knIf5Vy3pn2zZ4/3GjJ/in+n9jiy9eaugRv/ADlhOxsPLVko5PPPcyKo&#xA;BJJjWNdv+RuQ7FG8j7k647APdbG2SzsLe2BHC2iSMHtRFC9/lmlkbJLnAUGOaJ+aPkTW9en0HTdW&#xA;im1KFiqxbhZSo5N6DkcZONDXie1em+ZGTR5YR4iNvxza45oSNA7sqzFbXYq8e/Mj8j9T1PzJ/i7y&#xA;ZqQ0nXiwedGZ4keQDiZEkjDFGZdmBFG++u20naMYw8PIOKLh5tMTLiiaKQ3H5X/n35qjFh5p8yxW&#xA;2kmizxo4JdR4xW6RLJ/s2y8azS4t4R9X472Bw5ZbSOz0Ky/JHyDD5TtfLNzZtd2cFwLyWVpHjlmu&#xA;QhjLu8RQ04tTiDTMCXaGU5DMGjVfByBpocPCnGk/ln+X+kUNh5fso3HSV4VlkHykk5v+OUz1eWXO&#xA;RZxwwHIMkRERQiKFVRRVAoAPlmO2N4q7FXYq7FXYq7FXYq7FXYq7FXYq7FXYqlGqeZrKzvF023Rr&#xA;/WJAGTT7ehdVP+7JmPwwx/5TkV/ZqdsqnlANDeXc52n0E5w8SXoxD+I/dHrI+Q+NDdEWFpqHMXWo&#xA;zhrgj4baAkW8QPUCtGkP+W/0Ku4yUYnmWrNkhXDjHp7z9R/V7h8TJH5NxnYq7FUug8ueX7fUm1S3&#xA;0y1h1JgyvexwxpMwc1YNIoDEE77nLDlmRwkmu5iIC7rdjn5mfldpfn60soL6+ubM2DSPCYOBRjIF&#xA;BLq6mtAnw0I6nMjSayWAkgA215sIyc2VzrJZ6ZIun24lkt4SLS1BChmRP3cdWIArQDc5ijeW5bTs&#xA;NnkP/OPfkLzDotz5g1vzLaSWurXkwt0EwHIqD6s0gIqGWR3XcGnw5te1NTCYjGBuIcTS4jGzLmkf&#xA;/ORlzaP5/wDJdpeSpFaRMJbiR9lSOW5RXZq7UCxZf2UD4UyOf7GvVn1xtCebfzE84fmrq0nlPyHD&#xA;LBof2b6+asZljJoWmf8A3VCeyfabuP2clg0uPTR8TL9XQfjqjJlllPDDk9W/LP8AKXy95FsuUAF3&#xA;rMq8bvU5FAc9ykQ39NPbqe5OazV62eY77R7nKw4BAebOMwm92KuxV2KuxV2KuxV2KvNPOn5vJp11&#xA;Jp+hxx3M8RKzXclTErDqqKCORHjWnzzn9f22ISMMYsjr0eb7R7eGORhiAJHXp8GL3v5n+drG4iR7&#xA;1JJjGslxA0MQRDIOSoOKh6hCOXxddu2a7J2vqIEerfrsHWZO2dTAi5Wa3FD5fJnHkX80LTX5l0+/&#xA;iW01Nh+74n91LQVIWu6t/kn783HZ/a8cx4JDhn9hd32b21HOeCY4Z/YWd5uXeOxV2KuxV2KuxV2K&#xA;oXVNW03SrGS+1K5jtLSIVkmlYKo8Bv1J7AdcjOYiLJoN+n02TNMQxxMpHoGAW/m3zR58ne38po+k&#xA;eW0Ypc+Y50/fygHdLOJtgT/O3T2OxwhmnmNQ9MP536npp9m6bs2PFqqy6jpiB9I85n9A5+Y3Zt5f&#xA;8t6ToNmbbT4iDI3O5uJGMk88h6yTSN8TsfE/RmXjxRgKDz2t1+XUz4sh5cgNoxHdEdAmeWOG7FXY&#xA;q7FXYq7FXYq7FXnP5n/ktpPn3ULPUZ9Qnsbu1RbduAWSN4A7OwCGnFzzNGr8wc2Gj7QlgBAFguPm&#xA;04mbtl/lXynoPlbSI9K0W1W2tU3c9ZJHpQySv1Zj4/QNtsxM2eWSXFI7tsMYiKCb5UzdirsVdirs&#xA;VdirsVdirHvzA1abSvKGo3cDcZ+AiiYbENKwj5D3UNXMHtLMceCUhz/Xs6/tTOcWnlIc+Xz2fP8A&#xA;okEEl569yoa0tFNxcKejKn2Y/wDno/FPpziNPEGVn6Y7n9Xx5PBaeIMrl9Mdz+r4nZCXNxNc3Mtz&#xA;M3OaZ2kkbxZjUn78qnIyJJ5lqnMyJkeZagnmt5454XMc0TB43XqrKagj5HGMjEgjmERkYkEcw+pN&#xA;Lunu9MtLuRPTkuIY5XTpxLoGI+iuejYZmUBI9QC+nYZmcIyPUAonLG12KuxV2KuxV51+YH51eXPK&#xA;/qWVmV1TWVqDbRN+6ibp++kFaEfyjfxpmDqdfDHsN5PVdi+ymo1lTn+7xd55n+qP08vexfyt5C81&#xA;efr2HzL+YM0i6YD6lhoorErKdwSgP7uOn+zbufHHw6eeY8eXl0Due0e2dN2ZA6fQgeJylk5/b1P+&#xA;xHd3dptra3toI7e2iWGCJQkUUahUVRsAqjYAZtQABQfP55JTkZSNyPMlUwsHYq7FXYq7FXYq7FXY&#xA;q7FXYq7FXYq7FXYq7FXYq7FXYq7FUi886PLrHlTULGFec7xh4VHUvEwkCj3bjTMLtDAcuCURz/Vu&#xA;4PaWnOXBKI51t8N3zzdX0f1UWVrCbeDnzm5sHkkkFQOTBU2UE8VptU5w08g4eGIoPn88o4eGIofa&#xA;UFlLSnGjaa/1i3lki9W4mZRp1iRVppGICMwPSIHck/a6D9orl4MW4JFk/SO8/q+/51l6fCbBIsn6&#xA;Y95/V9/LvqRTfm5BpP5oWFgl16vl6wto9HvpySUaQH47kH/IkAFd/hDU6508dXwZYxv0xHCf1v0T&#xA;ofZKR7Hoj9/9ce+gK4f84b+8jue7ddxm6fP3Yq7FUt8weZNE8vae+oaxdpaWy7AsfiduvFFHxM3s&#xA;BleTLGAuRpy9FoM2qyeHiiZS/HPufPPn789Nf8xO2meXkk03TZD6dUNbuflsASteAP8AKm/uemaT&#xA;UdoSntHYfa+pdjeyGDSjxM9ZMg3/AKMf1+8/JmP5S/kjHp3o6/5oiEuo7SWenP8AEkPcPMCN5PBe&#xA;i/PplaPQcPqnz7nQ+0vtact4NMax8pS/neUf6Pn193Ps+bV4B2KuxV2KuxV2KuxV2KuxV2KuxV2K&#xA;uxV2KuxV2KuxV2KuxVTubm3tbeW5uZUgtoEaSaaRgiIiDkzMzUCqoFSThAJNBSaS7SvNnlbV7hrb&#xA;SdZsdRuUQyPDaXMM7hAQpYrGzHjVgK++WTwTgLlEj3hjGcTyKa5UyYB5y/Kaw1m5k1DTZhY30pLT&#xA;Iy1hkY/tGm6E9yK/LNJruxo5SZQPDI/Iuh7Q7DhmkZwPDI/I/qYhZ/lbqcTRhL3TZrqRiqu83ONC&#xA;CR8MfA+oxp+0Kex7YEewM8f5t/Gh9m7q4dg5Y9YE+/YfCt0m/MWSbyDB9TtfXuvMGqxt6+vyqypF&#xA;G2zpbMSaysPtPWoHTrtZLTDTd8skv4u73efm+p+wHsbglkOpzSGSUDy8+8ju+/3c+MZiPuL6m/Iv&#xA;zv8A4h8prYXUnLVNH4wSljVpIafuZPuHE+4r3zouz9Rxwo84vjPtf2T+V1XHEfu8u48j/EP0/Hye&#xA;kZnvJvNPzG/O7RPLPq6fpfDU9bWqsimsEDdP3rjqw/kXfxIzX6rXxx7DeT13YXslm1dZMn7vD/sp&#xA;e4fpPwt86675h8x+bNXW41GeW/vpmEdvCoJA5GixxRrsN+wG/wA80eTLPJKzuX1XR6HT6LFw4wIQ&#xA;G5P6ZF7x+WP5V6T5Ms18y+ap4ItU41U3DokFmG/y2IUyU6t26DxO80HZ5ibIufd3Pl/tP7VHVXhx&#xA;HhwDmf5//HfLr17mUS/nT+Vsc/ot5iti9aVUSOnWn21Ur+Obwdn56vhLw35jH3sl0bzDoOt25uNH&#xA;1C31CFdme3lWTiT2biTxPscx8mKUDUgQ2RmJcimGVskpi83eU5tTOlRa1YSaoJGhNgl1C1wJEqHT&#xA;0g3PkvE1FNstODII8XCeHvph4kbqxabZUzS3W/Mvl/QYoptZ1CDT4pmKRPcSLGGYCpALe2WY8M5/&#xA;SLYymI8yv0zX9E1TTjqWnX0F1p68uV3E6tEOH2quDT4e+CeKUTRFFRIEWEt/5WN+Xv8A1NGk/wDS&#xA;dbf815b+Vy/zJfIsfGh3j5u/5WN+Xv8A1NGk/wDSdbf814/lcv8AMl8ivjQ7x81az88+Sb66jtLL&#xA;zBpt1dTHjDbw3kEkjt4KiuWJ+WRlpskRZjID3FIyxPIhO8pZuxV2KuxV2KuxV2KuxV2KuxVj35jf&#xA;+S980f8AbJvv+oZ8yNL/AHsP6w+9rzfQfcXzx/zit/5MLUP+2TN/1E2+b7tn+6H9b9BdfovrPufV&#xA;Gcy7R2Kvjb8vv/J4WH/bWl/4m+dbqv8AFj/VdPi/vR731p5n8saP5l0ebStVh9W2l3Vhs8bj7Mkb&#xA;fssv9h2zjsuKOSPDJ6Xs/tDLpMoy4jUh8iO4+T5F87+TtR8peYJ9JvfiVfjtbgCiywsfhcfqI7HO&#xA;Y1GA4pcJfcuyO1MetwDLD4juPd+OiJ/LfzjL5S82WmqVP1Nj6GoRjflbyEc9u5UgOPcZLS5/DmD0&#xA;6tPbvZY1ullj/i5x/rDl8+XxZ7+an553OovLo3lWZoNN3S41JapLN4rF0KJ79T7Drm6ztAy9MOXe&#xA;817O+yEcQGbUi8nSPSPv7z9geNqru4VQWdjQAbkk5qnvSQA+hfy5/L/TvIPl2587+akpqNvbvOtu&#xA;QCbaOmygH/d0n2favHxzouzOzjxC/rl9j5F7We1H5i8OI/uY8z/PP/E93fz7njeoan58/OHzkLaE&#xA;GRmLNa2fIra2cAIBZj2pUcnpVjt4DO9jDFpMdn9pfMyZ5pPRbb/nEtjaVufMoW8I+zHaco1PhVpV&#xA;ZvnQZrz23vtHb3/scgaHzedeZvKHnz8pfMVrew3Jj5Emx1S1J9KULu0cinvT7SNUH3zYYc+LVQIr&#xA;3guPPHPEbfT/AOV/n2387eU4NXVVivEJg1C3Xok6AFuNSTxYEMvsc5vWaY4cnD06Ozw5eONvkXz7&#xA;c3Fr+ZXmO5tpGhuINZvZIZUNGV1unKspHQg51WmAOGIP80fc6nKamfe+o/yZ/NKDzvoPp3bLH5gs&#xA;FC6hCNvUXos6D+V/2h2b2pnNa/RnDLb6Ty/U7PT5+MebDv8AnLD/AJR7Qf8AmLl/5NZl9i/XL3NO&#xA;u5BMPyN/8kde/wDbw/4gch2j/jI+DLTf3XzfPPkPyTqHnPzAmiWE8VvcPE8oln5cKRipHwBj+Gb7&#xA;U6gYYcRdfixmZoPS/wDoVPzl/wBXfTvvn/6p5rv5ax90vscn8jLvCfeRP+cc/NHl3zfpWt3Wp2M1&#xA;vYTiWSKIzc2ABFF5IB38co1PasMmMxAO7Zi0koyBt9BZonPdirsVdirsVdirsVdirsVdirHvzG/8&#xA;l75o/wC2Tff9Qz5kaX+9h/WH3teb6D7i+eP+cVv/ACYWof8AbJm/6ibfN92z/dD+t+guv0X1n3Pq&#xA;jOZdo7FXxt+X3/k8LD/trS/8TfOt1X+LH+q6fF/ej3vsnOSdwwP84vIS+a/K8jW0fLWNODT2BH2n&#xA;2/eQ/wCzA2/ygMw9dp/Eht9Q5PS+y/bP5LUgSP7rJtLy7pfD7rfJvTOafbXYq94/If8AK0Uh8361&#xA;DWvxaPbOP+nhgf8Akn/wX8pzc9naT+OXw/W+a+2PtFz0uE/1z/vf+K+Xenf/ADk9fz235bRwRkhL&#xA;7UILebelUVJJx/w0K51vY8Qc19wP6nyzWmofFKf+cUtKtE8q6vqwQfXLi++qO/f0oIY5FA/2U5rl&#xA;nbUzxxj0q/x8mOhj6SfN7jmmc1gH57aVaaj+V2teuoL2aJd27kVKSRONx81LL8jmd2bMxzxrrs0a&#xA;mNwLy/8A5xNvpxqPmGxqTA8NvPx7B0Z1qB7h/wAM2XbcRUT73F0J3Ieeanp1pqX55XenXiepaXvm&#xA;eS3uIwSvKOXUCjiooRVW7ZnwkY6YEcxj/wB645F5aP8AO/SifMGjeZ/yf/MKK4spGZImMun3TA+n&#xA;dWxNGjkAoDt8Ljsdx2ORxZIarFR+PkUzjLDPZm358+ctJ83/AJeeWda01qRy3cqzwE1eGZYhzif3&#xA;X8RQ98w+zcEsWWcZdzdqsgnAEMu/I3/yR17/ANvD/iBzF7R/xkfBu039183z5+X3ne68l+Y01y1t&#xA;o7uVIpIhDKSq0kFCarvtm91WnGaHCTTr8WTgNvUf+hsPMP8A1YbT/kbLmt/kWH84uV+ePcyb8tv+&#xA;chNZ82+dNO8v3Gk29tDe+tynjkdmX0oJJhQHbcx0zH1fZccWMzBJr9bZh1RnICnuOaVznYq7FXYq&#xA;7FXYq7FXYq7FXYqx78xv/Je+aP8Atk33/UM+ZGl/vYf1h97Xm+g+4vnj/nFb/wAmFqH/AGyZv+om&#xA;3zfds/3Q/rfoLr9F9Z9z6ozmXaOxV8bfl9/5PCw/7a0v/E3zrdV/ix/qunxf3o977JzkncOxV8rf&#xA;nl5NXy75xe5tY+Gm6uDdQACirLWk0Y+THl8mGc52hg4MljlJ9o9ke1PzWkEZH95i9J938J+W3wQ3&#xA;5Qfl+fN3mQG6Q/obT+M1+24D7/BCCP5yN/8AJB70yOi03iz3+kc232n7a/I6f0n97PaPl3y+H30+&#xA;sURI0WONQiIAqIooABsAAM6V8TJJNnm87/P3y1Prv5a362yGS50501CKMCpIhqJKe4idzmw7MyiG&#xA;YXyOzjaqHFA+Tyf/AJxq/MXTNEvLzy1q0621tqUiz2M8hCxi4pwdGY7AyKF4k9xTuM2fa2llMCcd&#xA;65+5xNHlEfSer6dBBFR0znHZvFP+cj/zF0yy8tS+U7K4WbVtRZBeJGwJggRg59SnRpCoAX+Wp8K7&#xA;jsnSyM/EI9I+1wtXlAjwjmUL/wA4reWbi10TVfMM6FV1KRLezJHWO35F3Hszvx+a5LtnMDIQHT9K&#xA;NFCgT3vK/wD14T/wbf8Au5Zs/wDkJ/yT/wB64v8Alv8AO/S+oPzI8gaZ538tzaVdUjukrJp95SrQ&#xA;zgbH3VujjuPehzm9JqThnxDl1dnmxCcafFut6XrGh6hd6FqSvBPazUntiTw5qCFcDoaq3wt4HOwx&#xA;zjMCQ6umlExNF9Lfkb/5I69/7eH/ABA5zvaP+Mj4Oy039183j35A6fouofmHDb6xbW13ZG2nYw3i&#xA;RyRcgo4njICtR2zbdpylHFcSQbHJw9KAZ7vpz/BX5W/9WHQ/+kS0/wCaM5v8xn/nT+Zdn4ePuCK0&#xA;zyz5Asb6K60vSdKtb+Oohntbe2jmXkpVuLIoYVUkGnbIzzZZCpGRHvKYwgDsAyDKGx2KuxV2KuxV&#xA;2KuxV2KuxV2KpR5w0y61XylremWgBur+wura3DHipkmhZEqew5NluCYjkjI8gQwyC4keT5d/6Fq/&#xA;ND/fFp/0kr/TOl/lbD5/J1n5Obv+havzQ/3xaf8ASSv9Mf5Ww+fyX8nN6X+RH5Teb/JnmLUL/W44&#xA;Et7iz9CIxSiQ8/VR9wB4Kc13aWtx5oAR73J02CUCSUj8p/kf580z8zbXzDdRW402G/kuXZZgX9Nm&#xA;Yj4adfiy7P2jilhMBd0149NMTvpb6KzQOxdirA/zp8pHzF5HuvQj53+m/wCmWgAqx4D94gpueUdd&#xA;vGmYeuw8eM943el9lO0vyusjZqGT0y+PI/A/ZaY/lj5Oj8qeULPT2QC+lH1jUHHUzyAFhX/IFEHy&#xA;yekweHADr1cT2g7UOt1Usn8A2j/VH6+fxZXmS6VxAIoemKvAPzJ/5xoa8vptV8mywwesS8mkTVjj&#xA;Vj19CQVCgn9hgAOxptm90na9DhyfP9bgZtHZuLAY/wArvz7s4vqNva6hFbJ8IhhvoxFT2CzcaZnH&#xA;WaU7ki/d+xo8HKNt/myLyV/zjF5ivLxLrzdOlhZghpbOGRZrmTepUuvKNK/zBmOY+o7XgBWPc/Y2&#xA;Y9GSfU+k9O06x02wt9PsIVt7O1RYoIEFFVFFABnPTmZGzzLsQABQfPv/ACo/z5/ytv8AxP6Vv+iv&#xA;0/8ApPl6w5/V/rvr14U+1w7Zvf5RxeBwb8XBXxqnX/lp+JxdLv7X0Vmgdi8t/O38nx51s4tS0hY4&#xA;vMdpSNWc8UngJ3jduxSvJT8x322fZ+u8E1L6D9ji6nT8Ysc0b+WPkfXvLv5ZXPl7UkjXUpfrfBY3&#xA;Dp++UhPiGQ1mojkzCY5bMsOMxhR5vC/+havzQ/3xaf8ASSv9M3X8rYfP5OD+Tm7/AKFq/ND/AHxa&#xA;f9JK/wBMf5Ww+fyX8nNkf5d/kN+YOhed9H1jUIbZbKyuBLOUnVm4gEbLTfrmPqu0sU8coi7IbMWl&#xA;nGQJfS2c67J2KuxV2KuxV2KuxV2KuxV2KuxV2KuxV2KuxV2Kpfr2tWuiaVNqd0kkltblPVEQUsqv&#xA;IqF6MVHFOXJt+gNK9MsxYzOXCObGUuEWx2P81/K0t0ttELh3N9LpzsETijxXFvbeq5LikTPexcW7&#xA;g1pl50UwL25X9hP6C1+PH7fx96nY/m55Yv0sJLWK6kgvmVfW4RhYRLeCyhaaslVWWRqoQD8O+3TD&#xA;LQzjd1t+q1GeJr8eSJ0X8z/K+r2rXdsZks4rK41G4uJUULFb20piLSAMzfvOLOlAaqK7dMjk0c4G&#xA;jzsD5pjmid2pvzGtoDpsdxo2oQXOru66fbTGyjeRI1jYyAvchN/VACcvUO/wbYjSE3UhUefP9X7P&#xA;NfG5bHf3frSzy1+aBu7yaDVYwoN6ljC1vEVSNpr2/tYWlkeZiQ/1FF2QUdu4Pw25dHQuPdf2RPd5&#xA;sIZrO/43P6kfpv5qaDqDRPBaXosXlgt5dQdIhBDJdsBaiT96X/fB0ZSqkAOvLjWmVz0Uo8yL7vdz&#xA;+X6GQzgrLH819EurOO6fT7+1jubNL7TlmSDldRyTR26rCI5pKP608aUk4/aBHw74ZaKQNWDRo89u&#xA;vd3BRnBHIo+Xz7py6TpmoR2N5O+qXj6dDYxpF9YS6iExljlDSKg4NaurEORX23yA0x4iLHpF30rb&#xA;9afFFA96p5f886Xrd3FbwW9zbrdwPd6bcXCxrHd28TrG8sPB3agLqaSKrUYGlMGXTSgLJG2x8imG&#xA;USZFmO2OxV2KuxV2KuxV2KuxV2KuxV2KuxV2KuxV2KuxV2KuxV2KuxV2KuxVCavplrqulXmmXYJt&#xA;b6CS3nC0B4SqUalQd6HbJQmYyEhzCJRsUxQflD5TFpfWwNyBqGnwabNL6i+oqW1CsyNw/vmZEZmN&#xA;QSo2zK/PZLB22JPz/Q1eBH7Fc/lZ5V+p67ZxrNDBr8VvDcCNlHoraIEh+r/CeBVvj3r8W+D87O4n&#xA;+bf296+BGiO9uL8r/LcD6iLZ7i3t9VEMd/aRugikt4LZ7YW1OBYRMsjOwBrz3qOmA6yZq69PL33d&#xA;r4Md/N1/+XMOo6Qmj6jrmpXmnqSHhmFkxeOiKsZf6qHHHh8LqRJ8R+PwY6rhlxCMQfj+v9nkpw2K&#xA;JP2fqUx+VXlv9H6xYma6MWtKonf1EDxMl3PexyQsEHF0mu24k1+yvuSfzs7idvT+oD7gvgRojv8A&#xA;7UT/AMq60Nb6OeGa5gs1e0ll0uNkFrLLp6qlrJIChkrGIk2Vwp4rUGmR/NSqtr336780+EL/AB0Q&#xA;l3+U3le70mw0u4e4kt9O0/8ARlsXMTH0xNBOsjho2RnV7VOq8CKhlIOTjrZiRkK3N/eP0oOCJAHc&#xA;KRdl+Xml2j6T6d3cCDRpBcWtnGlpBbtNxnUytFbwQoGZbpgeAUfCvvWEtVI3sPV776d58kjEBXkr&#xA;+X/I2l6HeR3Fvc3NwtrA9pptvcOjRWlvLIsjxQhERqEou8jM1FArTBl1MpiiBvufMphiESyLMdsd&#xA;irsVdirsVdirsVdirsVdirsVdir/AP/Z</xmpGImg:image>
               </rdf:li>
            </rdf:Alt>
         </xmp:Thumbnails>
      </rdf:Description>
      <rdf:Description rdf:about=""
            xmlns:xmpMM="http://ns.adobe.com/xap/1.0/mm/"
            xmlns:stRef="http://ns.adobe.com/xap/1.0/sType/ResourceRef#"
            xmlns:stEvt="http://ns.adobe.com/xap/1.0/sType/ResourceEvent#">
         <xmpMM:RenditionClass>proof:pdf</xmpMM:RenditionClass>
         <xmpMM:OriginalDocumentID>uuid:65E6390686CF11DBA6E2D887CEACB407</xmpMM:OriginalDocumentID>
         <xmpMM:DocumentID>xmp.did:9DECCE076FDEE811B5F6CDBFE15F2DD2</xmpMM:DocumentID>
         <xmpMM:InstanceID>xmp.iid:9DECCE076FDEE811B5F6CDBFE15F2DD2</xmpMM:InstanceID>
         <xmpMM:DerivedFrom rdf:parseType="Resource">
            <stRef:instanceID>xmp.iid:9CECCE076FDEE811B5F6CDBFE15F2DD2</stRef:instanceID>
            <stRef:documentID>xmp.did:9CECCE076FDEE811B5F6CDBFE15F2DD2</stRef:documentID>
            <stRef:originalDocumentID>uuid:65E6390686CF11DBA6E2D887CEACB407</stRef:originalDocumentID>
            <stRef:renditionClass>proof:pdf</stRef:renditionClass>
         </xmpMM:DerivedFrom>
         <xmpMM:History>
            <rdf:Seq>
               <rdf:li rdf:parseType="Resource">
                  <stEvt:action>saved</stEvt:action>
                  <stEvt:instanceID>xmp.iid:1E9B5FD9E2D8E811B10AC7C01478B39D</stEvt:instanceID>
                  <stEvt:when>2018-10-26T08:58:38+03:00</stEvt:when>
                  <stEvt:softwareAgent>Adobe Illustrator CS6 (Windows)</stEvt:softwareAgent>
                  <stEvt:changed>/</stEvt:changed>
               </rdf:li>
               <rdf:li rdf:parseType="Resource">
                  <stEvt:action>saved</stEvt:action>
                  <stEvt:instanceID>xmp.iid:9DECCE076FDEE811B5F6CDBFE15F2DD2</stEvt:instanceID>
                  <stEvt:when>2018-11-02T12:20:08+02:00</stEvt:when>
                  <stEvt:softwareAgent>Adobe Illustrator CS6 (Windows)</stEvt:softwareAgent>
                  <stEvt:changed>/</stEvt:changed>
               </rdf:li>
            </rdf:Seq>
         </xmpMM:History>
      </rdf:Description>
      <rdf:Description rdf:about=""
            xmlns:illustrator="http://ns.adobe.com/illustrator/1.0/">
         <illustrator:StartupProfile>Web</illustrator:StartupProfile>
      </rdf:Description>
      <rdf:Description rdf:about=""
            xmlns:xmpTPg="http://ns.adobe.com/xap/1.0/t/pg/"
            xmlns:stDim="http://ns.adobe.com/xap/1.0/sType/Dimensions#"
            xmlns:stFnt="http://ns.adobe.com/xap/1.0/sType/Font#"
            xmlns:xmpG="http://ns.adobe.com/xap/1.0/g/">
         <xmpTPg:NPages>1</xmpTPg:NPages>
         <xmpTPg:HasVisibleTransparency>False</xmpTPg:HasVisibleTransparency>
         <xmpTPg:HasVisibleOverprint>False</xmpTPg:HasVisibleOverprint>
         <xmpTPg:MaxPageSize rdf:parseType="Resource">
            <stDim:w>600.089844</stDim:w>
            <stDim:h>300.000000</stDim:h>
            <stDim:unit>Pixels</stDim:unit>
         </xmpTPg:MaxPageSize>
         <xmpTPg:Fonts>
            <rdf:Bag>
               <rdf:li rdf:parseType="Resource">
                  <stFnt:fontName>MyriadPro-Regular</stFnt:fontName>
                  <stFnt:fontFamily>Myriad Pro</stFnt:fontFamily>
                  <stFnt:fontFace>Regular</stFnt:fontFace>
                  <stFnt:fontType>Open Type</stFnt:fontType>
                  <stFnt:versionString>Version 2.106;PS 2.000;hotconv 1.0.70;makeotf.lib2.5.58329</stFnt:versionString>
                  <stFnt:composite>False</stFnt:composite>
                  <stFnt:fontFileName>MyriadPro-Regular.otf</stFnt:fontFileName>
               </rdf:li>
            </rdf:Bag>
         </xmpTPg:Fonts>
         <xmpTPg:PlateNames>
            <rdf:Seq>
               <rdf:li>Cyan</rdf:li>
               <rdf:li>Magenta</rdf:li>
               <rdf:li>Yellow</rdf:li>
               <rdf:li>Black</rdf:li>
            </rdf:Seq>
         </xmpTPg:PlateNames>
         <xmpTPg:SwatchGroups>
            <rdf:Seq>
               <rdf:li rdf:parseType="Resource">
                  <xmpG:groupName>Default Swatch Group</xmpG:groupName>
                  <xmpG:groupType>0</xmpG:groupType>
               </rdf:li>
            </rdf:Seq>
         </xmpTPg:SwatchGroups>
      </rdf:Description>
      <rdf:Description rdf:about=""
            xmlns:pdf="http://ns.adobe.com/pdf/1.3/">
         <pdf:Producer>Adobe PDF library 10.01</pdf:Producer>
      </rdf:Description>
   </rdf:RDF>
</x:xmpmeta>
                                                                                                    
                                                                                                    
                                                                                                    
                                                                                                    
                                                                                                    
                                                                                                    
                                                                                                    
                                                                                                    
                                                                                                    
                                                                                                    
                                                                                                    
                                                                                                    
                                                                                                    
                                                                                                    
                                                                                                    
                                                                                                    
                                                                                                    
                                                                                                    
                                                                                                    
                                                                                                    
                           
<?xpacket end="w"?>
	</metadata>
<g id="Layer_1_1_">
	<ellipse display="none" fill="none" cx="290.936" cy="127.499" rx="280.092" ry="62.672"/>
	
		<text transform="matrix(0.9963 -0.287 0.2768 0.9609 49.8174 94.7856)" display="none" fill="#FFFFFF" enable-background="new    " font-family="'NexaBold'" font-size="60.201">C</text>
	
		<text transform="matrix(1.0176 -0.1993 0.1922 0.9814 88.6123 83.8359)" display="none" fill="#FFFFFF" enable-background="new    " font-family="'NexaBold'" font-size="60.2029">L</text>
	
		<text transform="matrix(1.0276 -0.1382 0.1333 0.9911 123.8462 76.8389)" display="none" fill="#FFFFFF" enable-background="new    " font-family="'NexaBold'" font-size="60.201">U</text>
	
		<text transform="matrix(1.033 -0.0887 0.0856 0.9963 169.3345 70.793)" display="none" fill="#FFFFFF" enable-background="new    " font-family="'NexaBold'" font-size="60.201">B</text>
	
		<text transform="matrix(1.0358 -0.0473 0.0456 0.999 211.4316 67.1528)" display="none" fill="#FFFFFF" enable-background="new    " font-family="'NexaBold'" font-size="60.2082">U</text>
	
		<text transform="matrix(1.0368 -0.0125 0.012 0.9999 257.3984 65.1372)" display="none" fill="#FFFFFF" enable-background="new    " font-family="'NexaBold'" font-size="60.201">L</text>
	
		<text transform="matrix(1.0368 0.0074 -0.0071 1 293.7168 64.814)" display="none" fill="#FFFFFF" enable-background="new    " font-family="'NexaBold'" font-size="60.201"> </text>
	
		<text transform="matrix(1.0364 0.0296 -0.0285 0.9996 306.126 64.7437)" display="none" fill="#FFFFFF" enable-background="new    " font-family="'NexaBold'" font-size="60.201">S</text>
	
		<text transform="matrix(1.0347 0.0662 -0.0638 0.998 347.0029 65.8853)" display="none" fill="#FFFFFF" enable-background="new    " font-family="'NexaBold'" font-size="60.2076">P</text>
	
		<text transform="matrix(1.0308 0.1119 -0.1079 0.9942 388.6787 68.4355)" display="none" fill="#FFFFFF" enable-background="new    " font-family="'NexaBold'" font-size="60.2079">O</text>
	
		<text transform="matrix(1.0229 0.1697 -0.1637 0.9865 436.8311 73.6787)" display="none" fill="#FFFFFF" enable-background="new    " font-family="'NexaBold'" font-size="60.201">R</text>
	
		<text transform="matrix(1.0079 0.2432 -0.2345 0.9721 477.6895 80.3896)" display="none" fill="#FFFFFF" enable-background="new    " font-family="'NexaBold'" font-size="60.201">T</text>
	
		<text transform="matrix(0.9861 0.3203 -0.309 0.9511 514.168 89.5234)" display="none" fill="#FFFFFF" enable-background="new    " font-family="'NexaBold'" font-size="60.2076">I</text>
	
		<text transform="matrix(0.9155 0.4867 -0.4694 0.883 528.4795 92.1841)" display="none" fill="#FFFFFF" enable-background="new    " font-family="'NexaBold'" font-size="60.201">V</text>
	<rect x="211.171" y="250.936" display="none" fill="none" width="186.121" height="23.078"/>
	
		<text transform="matrix(1 0 0 1 221.1797 268.0322)" display="none" fill="#FFFFFF" enable-background="new    " font-family="'MyriadPro-Regular'" font-size="24.0804">www.cslivone.ro</text>
	<g display="none">
		<path display="inline" fill="#FFFFFF" d="M128.392,166.943v57.521h35.827v12.14h-48.963v-69.66H128.392L128.392,166.943z"/>
		<path display="inline" fill="#FFFFFF" d="M180.11,169.063c-2.229,0-4.413-0.215-6.544-0.604v68.146h13.037v-68.139
			C184.489,168.852,182.321,169.063,180.11,169.063z"/>
	</g>
	<g display="none">
		<path display="inline" fill="#FFFFFF" d="M365.057,202.172c-0.199,18.016-11.248,36.026-35.727,36.026
			c-24.482,0-35.828-17.614-35.828-35.927c0-18.313,11.743-36.725,35.828-36.725C353.313,165.55,365.254,183.961,365.057,202.172z
			 M306.439,202.471c0.299,11.443,6.469,23.688,22.891,23.688c16.419,0,22.588-12.343,22.788-23.785
			c0.198-11.743-6.369-24.878-22.788-24.878C312.908,177.493,306.143,190.729,306.439,202.471z"/>
		<path display="inline" fill="#FFFFFF" d="M420.479,166.844h13.14v69.762h-8.162v0.103l-36.622-47.071v46.973h-13.139v-69.66
			h10.648l34.137,43.188L420.479,166.844L420.479,166.844z"/>
		<path display="inline" fill="#FFFFFF" d="M497.598,236.604h-52.146c0-23.185,0-46.473,0-69.66h52.146v12.738H458.49v16.021h37.716
			v12.24H458.49v15.724h39.106L497.598,236.604L497.598,236.604z"/>
	</g>
	<g display="none">
		<path display="inline" fill="#FFFFFF" d="M250.187,181.021l-4.507,4.096l-27.947-51.68l-0.196-0.363
			c-0.566,14.016-21.174,32.182-21.174,32.182c25.342,15.778,48.014,76.041,48.014,76.041l1.911-4.691
			c33.077-72.525,158.51-156.814,158.367-156.742C399.299,82.728,263.834,166.089,250.187,181.021z"/>
	</g>
	<ellipse display="none" fill="#FFFFFF" cx="179.997" cy="131.993" rx="30.863" ry="30.833"/>
	<g display="none">
		<path display="inline" fill="#E7DF00" d="M210.602,127.966c-1.261-8.737-5.434-15.752-12.525-21
			c-3.847-2.848-8.177-4.609-12.892-5.426c-0.614-0.106-1.231-0.185-1.851-0.25c-0.948,0.048-1.921-0.14-2.875-0.132
			c-0.839,0.01-1.677,0.006-2.517,0.004c-0.169,0.028-0.342,0.032-0.511,0.047c-5.204,0.441-10.003,2.073-14.354,4.956
			c-5.966,3.953-10.105,9.329-12.391,16.116c-0.854,2.534-1.333,5.144-1.496,7.813c-0.003,0.065,0.024,0.146-0.059,0.186v3.436
			c0.119,0.273,0.081,0.566,0.104,0.85c0.515,5.931,2.563,11.279,6.145,16.026c3.004,3.982,6.771,7.053,11.267,9.217
			c2.832,1.367,5.81,2.252,8.917,2.713c0.051,0.008,0.101,0.008,0.151,0.014c0.006-0.026,0.013-0.053,0.019-0.073
			c0.693-0.578,1.445-1.078,2.176-1.604c5.481-3.973,11.025-7.854,16.501-11.83c6.957-5.047,12.223-11.5,15.735-19.36
			c0.169-0.376,0.324-0.754,0.478-1.135C210.701,128.343,210.629,128.149,210.602,127.966z M183.919,102.197
			c-2.452,0.82-4.115,2.482-5.187,4.802c-3.006,6.51-5.865,13.084-8.745,19.649c-1.935,4.414-4.372,8.536-7.527,12.204
			c-0.92,1.068-1.925,2.06-3.204,2.702c-1.592,0.798-3.269,1.226-5.064,0.962c-2.104-0.309-3.541-1.722-4.027-3.822
			c-0.005-0.026,0.007-0.056,0.014-0.115c0.632,0.476,1.288,0.875,2.002,1.177c2.525,1.065,4.815,0.699,6.879-1.112
			c1.834-1.61,3.323-3.509,4.66-5.538c1.709-2.59,2.99-5.391,4.173-8.254c2.36-5.71,4.876-11.352,7.642-16.879
			c0.22-0.439,0.452-0.873,0.689-1.304c1.41-2.563,3.656-3.973,6.426-4.657c0.832-0.205,1.681-0.227,2.536-0.148
			C184.767,101.987,184.334,102.059,183.919,102.197z"/>
		<path display="inline" fill="#E7DF00" d="M210.831,130.169c-0.002,0.001-0.003,0.001-0.004,0.001
			c-0.052,1.221-0.204,2.431-0.542,3.614c-0.801,2.801-2.293,5.224-4.097,7.471c-2.461,3.066-5.355,5.682-8.492,8.032
			c-3.277,2.46-6.693,4.72-10.042,7.079c-3.05,2.147-6.141,4.233-9.165,6.419c0.223,0.008,0.444,0.021,0.666,0.027
			c2.906,0.094,5.77-0.242,8.586-0.979c4.989-1.31,9.402-3.688,13.172-7.202c5.858-5.458,9.138-12.2,9.846-20.186
			c0.026-0.283-0.019-0.577,0.101-0.85v-3.42C210.851,130.172,210.84,130.172,210.831,130.169z"/>
	</g>
</g>
<g>
	<path fill="#0E3793" d="M73.044,86.834c-3.125,5.333-8.138,8.837-14.176,10.575c-15.544,4.475-25.092-3.953-28.173-14.431
		c-3.098-10.535,0.928-23.309,16.054-27.663c5.68-1.636,11.658-1.108,17.141,1.746l-3.85,6.416
		c-3.497-1.803-7.552-1.947-11.199-0.897c-10.104,2.909-12.376,11.432-10.374,18.16c1.985,6.672,8,12.496,18.342,9.519
		c3.647-1.05,7.357-3.679,9.343-7.123L73.044,86.834z"/>
	<path fill="#0E3793" d="M77.683,48.791l6.588,34.052l21.989-4.257l1.391,7.188L77.6,91.592l-7.979-41.24L77.683,48.791z"/>
	<path fill="#0E3793" d="M142.476,38.566l3.243,23.839c1.674,12.306-5.298,19.673-16.147,21.149
		c-10.356,1.41-19.997-3.453-21.703-15.997l-3.243-23.839l8.076-1.099l3.243,23.838c1.019,7.491,6,10.869,12.719,9.955
		c6.719-0.915,9.951-5.775,8.98-12.909L134.4,39.665L142.476,38.566z"/>
	<path fill="#0E3793" d="M188.285,46.551c0.281,3.228-1.06,6.476-4.938,8.56c5.213,1.052,7.525,6.09,7.754,8.72
		c0.812,9.323-6.18,12.944-15.167,13.728c-6.88,0.6-13.698,1.193-20.578,1.793l-3.642-41.838c6.818-0.595,13.698-1.193,20.578-1.793
		C180.844,34.974,187.551,38.123,188.285,46.551z M161.233,53.605l12.52-1.091c5.145-0.448,6.636-2.687,6.428-5.077
		c-0.167-1.913-2.059-5-7.265-4.546l-12.521,1.091L161.233,53.605z M162.773,71.297l12.521-1.091
		c3.347-0.292,8.026-1.784,7.682-5.729c-0.328-3.766-5.272-5.322-8.619-5.03l-12.521,1.091L162.773,71.297z"/>
	<path fill="#0E3793" d="M233.753,32.096l1.126,24.034c0.581,12.407-7.014,19.128-17.952,19.639
		c-10.441,0.487-19.615-5.212-20.208-17.858l-1.125-24.035l8.141-0.38l1.126,24.035c0.354,7.552,5.017,11.359,11.791,11.043
		c6.774-0.316,10.422-4.871,10.085-12.063l-1.126-24.034L233.753,32.096z"/>
	<path fill="#0E3793" d="M251.039,31.713l0.45,34.679l22.396-0.291l0.095,7.319l-30.607,0.397l-0.545-41.998L251.039,31.713z"/>
	<path fill="#0E3793" d="M319.674,42.389c-1.427-2.44-5.469-4.833-10.196-4.963c-6.095-0.167-9.086,2.212-9.171,5.331
		c-0.101,3.659,4.35,4.802,9.557,5.545c9.051,1.329,17.447,3.841,17.172,13.858c-0.257,9.356-8.95,13.14-18.652,12.873
		c-8.895-0.244-15.663-3.071-18.687-10.838l6.936-3.231c1.801,4.672,6.783,6.85,12.069,6.995c5.162,0.142,10.062-1.465,10.187-6.023
		c0.108-3.959-4.139-5.696-9.906-6.455c-8.865-1.264-17.013-3.769-16.754-13.186c0.237-8.638,9.166-11.935,17.191-11.773
		c6.778,0.187,13.756,2.238,16.874,8.808L319.674,42.389z"/>
	<path fill="#0E3793" d="M353.942,63.659l-12.293-0.773l-0.776,12.334l-8.196-0.516l2.639-41.913
		c6.829,0.43,13.663,0.8,20.493,1.229C377.042,35.356,375.238,64.999,353.942,63.659z M342.105,55.641l12.293,0.773
		c10.493,0.66,11.365-14.193,0.935-14.85l-12.293-0.773L342.105,55.641z"/>
	<path fill="#0E3793" d="M418.979,61.258c-1.281,10.785-9.305,20.848-24.522,19.215c-15.217-1.633-21.138-12.95-19.961-23.928
		c1.176-10.978,9.658-21.232,24.628-19.626C414.031,38.519,420.271,50.353,418.979,61.258z M382.523,57.527
		c-0.549,6.881,2.5,14.631,12.706,15.726c10.207,1.096,14.835-5.891,15.694-12.739c0.878-7.026-2.361-15.34-12.567-16.435
		C388.149,42.983,383.093,50.467,382.523,57.527z"/>
	<path fill="#0E3793" d="M460.307,88.917l-9.638-1.581l-10.248-15.908l-7.797-1.278l-2.274,13.854l-8.103-1.329l6.813-41.503
		c6.814,1.118,13.618,2.295,20.432,3.413c10.119,1.721,14.391,9.109,13.215,16.273c-0.934,5.684-4.577,10.983-13.004,11.242
		l10.69,16.285L460.307,88.917z M435.958,49.842l-2.177,13.262l12.339,2.024c5.156,0.846,7.91-2.106,8.454-5.422
		c0.545-3.315-1.183-7.004-6.277-7.84L435.958,49.842z"/>
	<path fill="#0E3793" d="M483.894,58.71l-13.421-3.259l1.699-6.996c12.212,2.965,22.55,5.476,34.822,8.455l-1.699,6.996
		l-13.421-3.259l-8.213,33.816l-7.98-1.938L483.894,58.71z"/>
	<path fill="#0E3793" d="M501.044,99.27l13.074-39.915l7.745,2.536l-13.073,39.916L501.044,99.27z"/>
	<path fill="#0E3793" d="M535.734,113.76l-7.503-4.043l4.07-45.724l8.104,4.367l-3.954,35.017l27.119-22.534l8.105,4.368
		L535.734,113.76z"/>
</g>
<rect x="195.501" y="259" fill-rule="evenodd" clip-rule="evenodd" fill="none" width="185.499" height="23"/>
<text transform="matrix(1 0 0 1 205.4761 276.04)" fill="#0E3793" font-family="'MyriadPro-Regular'" font-size="24">www.cslivone.ro</text>
<g>
	<path fill="#0E3793" d="M112.999,175.289v57.329h35.707v12.101H99.907v-69.43H112.999z"/>
	<path fill="#0E3793" d="M164.544,177.399c-2.221,0-4.398-0.214-6.522-0.601v67.92h12.994v-67.91
		C168.909,177.189,166.748,177.399,164.544,177.399z"/>
</g>
<g>
	<path fill="#0E3793" d="M348.871,210.4c-0.197,17.953-11.208,35.905-35.606,35.905c-24.399,0-35.707-17.557-35.707-35.807
		c0-18.249,11.704-36.599,35.707-36.599C337.168,173.9,349.07,192.25,348.871,210.4z M290.452,210.697
		c0.298,11.406,6.446,23.607,22.813,23.607c16.365,0,22.514-12.3,22.713-23.706c0.198-11.704-6.348-24.796-22.713-24.796
		C296.898,185.803,290.153,198.994,290.452,210.697z"/>
	<path fill="#0E3793" d="M404.109,175.189h13.093v69.529h-8.133v0.099l-36.501-46.914v46.815h-13.092v-69.43h10.613l34.02,43.046
		V175.189z"/>
	<path fill="#0E3793" d="M480.971,244.719h-51.972c0-23.109,0-46.319,0-69.43h51.972v12.695h-38.979v15.969h37.59v12.2h-37.59
		v15.671h38.979V244.719z"/>
</g>
<g>
	<path fill-rule="evenodd" clip-rule="evenodd" fill="#FF0000" d="M234.387,189.32l-4.492,4.082l-27.854-51.508l-0.196-0.362
		c-0.564,13.97-21.104,32.075-21.104,32.075c25.259,15.726,47.854,75.787,47.854,75.787l1.905-4.676
		C263.467,172.432,388.481,88.424,388.34,88.5C383.002,91.354,247.988,174.438,234.387,189.32z"/>
</g>
<ellipse fill-rule="evenodd" clip-rule="evenodd" fill="#FFFFFF" cx="164.432" cy="140.455" rx="30.76" ry="30.731"/>
<g>
	<path fill-rule="evenodd" clip-rule="evenodd" fill="#13C605" d="M194.935,136.442c-1.256-8.708-5.416-15.7-12.483-20.93
		c-3.834-2.838-8.15-4.594-12.849-5.408c-0.612-0.106-1.227-0.184-1.844-0.249c-0.945,0.047-1.916-0.14-2.865-0.131
		c-0.836,0.008-1.672,0.005-2.508,0.003c-0.169,0.028-0.341,0.032-0.51,0.047c-5.187,0.439-9.969,2.066-14.306,4.939
		c-5.945,3.939-10.071,9.298-12.349,16.063c-0.85,2.526-1.328,5.126-1.49,7.786c-0.004,0.065,0.023,0.144-0.059,0.186v3.425
		c0.119,0.271,0.081,0.564,0.105,0.847c0.513,5.911,2.554,11.24,6.124,15.973c2.995,3.97,6.749,7.029,11.229,9.188
		c2.822,1.36,5.791,2.244,8.888,2.703c0.05,0.006,0.1,0.006,0.15,0.009c0.006-0.024,0.013-0.047,0.019-0.071
		c0.69-0.577,1.44-1.074,2.168-1.602c5.463-3.957,10.988-7.826,16.447-11.788c6.933-5.031,12.181-11.461,15.683-19.296
		c0.167-0.374,0.323-0.751,0.476-1.131C195.033,136.818,194.961,136.625,194.935,136.442z M168.341,110.759
		c-2.444,0.817-4.101,2.474-5.169,4.786c-2.996,6.488-5.845,13.041-8.716,19.584c-1.929,4.399-4.357,8.507-7.501,12.163
		c-0.917,1.065-1.92,2.054-3.194,2.693c-1.586,0.795-3.257,1.222-5.047,0.959c-2.097-0.308-3.53-1.716-4.014-3.809
		c-0.005-0.026,0.007-0.057,0.014-0.115c0.629,0.475,1.283,0.873,1.995,1.172c2.517,1.062,4.799,0.697,6.856-1.108
		c1.829-1.604,3.312-3.497,4.645-5.518c1.704-2.583,2.98-5.374,4.159-8.228c2.351-5.691,4.859-11.314,7.616-16.822
		c0.219-0.438,0.451-0.87,0.687-1.299c1.405-2.554,3.644-3.96,6.404-4.641c0.83-0.204,1.676-0.227,2.528-0.148
		C169.186,110.549,168.754,110.621,168.341,110.759z"/>
	<path fill="#13C605" d="M195.163,138.637c-0.001,0-0.003,0-0.004,0.001c-0.051,1.217-0.203,2.422-0.54,3.602
		c-0.798,2.791-2.286,5.206-4.084,7.445c-2.453,3.056-5.337,5.663-8.462,8.006c-3.267,2.45-6.672,4.703-10.01,7.055
		c-3.039,2.14-6.121,4.221-9.134,6.398c0.221,0.008,0.443,0.021,0.663,0.028c2.897,0.09,5.75-0.242,8.557-0.977
		c4.973-1.304,9.371-3.677,13.128-7.178c5.838-5.44,9.107-12.16,9.813-20.119c0.025-0.282-0.019-0.575,0.102-0.847v-3.409
		C195.183,138.641,195.171,138.641,195.163,138.637z"/>
</g>
</svg>
