<?xml version="1.0" encoding="utf-8"?>
<!-- Generator: Adobe Illustrator 23.0.1, SVG Export Plug-In . SVG Version: 6.00 Build 0)  -->
<!DOCTYPE svg PUBLIC "-//W3C//DTD SVG 1.1//EN" "http://www.w3.org/Graphics/SVG/1.1/DTD/svg11.dtd" [
	<!ENTITY ns_extend "http://ns.adobe.com/Extensibility/1.0/">
	<!ENTITY ns_ai "http://ns.adobe.com/AdobeIllustrator/10.0/">
	<!ENTITY ns_graphs "http://ns.adobe.com/Graphs/1.0/">
	<!ENTITY ns_vars "http://ns.adobe.com/Variables/1.0/">
	<!ENTITY ns_imrep "http://ns.adobe.com/ImageReplacement/1.0/">
	<!ENTITY ns_sfw "http://ns.adobe.com/SaveForWeb/1.0/">
	<!ENTITY ns_custom "http://ns.adobe.com/GenericCustomNamespace/1.0/">
	<!ENTITY ns_adobe_xpath "http://ns.adobe.com/XPath/1.0/">
]>
<svg version="1.1" id="Layer_1" xmlns:x="&ns_extend;" xmlns:i="&ns_ai;" xmlns:graph="&ns_graphs;"
	 xmlns="http://www.w3.org/2000/svg" xmlns:xlink="http://www.w3.org/1999/xlink" x="0px" y="0px" viewBox="0 0 150 30"
	 style="enable-background:new 0 0 150 30;" xml:space="preserve">
<style type="text/css">
	.st0{display:none;}
	.st1{display:inline;}
	.st2{fill:#0AA34A;}
	.st3{fill:#FFFFFF;}
	.st4{fill:none;}
</style>
<metadata>
	<sfw  xmlns="&ns_sfw;">
		<slices></slices>
		<sliceSourceBounds  bottomLeftOrigin="true" height="24.9" width="154.6" x="2.2" y="2.5"></sliceSourceBounds>
	</sfw>
</metadata>
<g class="st0">
	<g class="st1">
		<path class="st2" d="M8,16c0,2.3,0.5,3.2,2.8,3.2H17c2.3,0,2.8-0.9,2.8-3.2v-1.7c0-2-0.5-3.2-3-3.2H11c-2.5,0-3,1.2-3,3.2V16L8,16
			z M3,12.8c0-4.6,2.6-5.7,6.9-5.7h7.7c4.4,0,6.9,1.1,6.9,5.7v4.7c0,4.6-2.6,5.7-6.9,5.7H9.9c-4.4,0-6.9-1.1-6.9-5.7L3,12.8L3,12.8z
			"/>
		<polygon class="st2" points="33.8,15.1 26.6,7.3 32.9,7.3 37.8,12.8 42.7,7.3 48.9,7.3 41.7,15.1 49.4,23 43,23 37.8,17.3 
			32.6,23 26.1,23 		"/>
		<polygon class="st2" points="51.5,7.3 56.3,7.3 56.3,23 51.5,23 		"/>
		<polygon class="st3" points="59.9,7.3 64.7,7.3 64.7,12.9 74.9,12.9 74.9,7.3 79.7,7.3 79.7,23 74.9,23 74.9,17 64.7,17 64.7,23 
			59.9,23 		"/>
		<path class="st3" d="M87.6,16c0,2.3,0.5,3.2,2.8,3.2h6.2c2.3,0,2.8-0.9,2.8-3.2v-1.7c0-2-0.5-3.2-3-3.2h-5.7c-2.5,0-3,1.2-3,3.2
			V16H87.6z M82.6,12.8c0-4.6,2.6-5.7,6.9-5.7h7.7c4.4,0,6.9,1.1,6.9,5.7v4.7c0,4.6-2.6,5.7-6.9,5.7h-7.7c-4.4,0-6.9-1.1-6.9-5.7
			V12.8L82.6,12.8z"/>
		<path class="st3" d="M106.9,17.9h4.8c0,1.7,0.7,1.8,2.1,1.8h5.9c1,0,2.1-0.1,2.1-1.3c0-1.4-0.6-1.5-6.8-1.5
			c-7.3,0-8.1-0.9-8.1-4.7c0-2.9,0.3-5,6.4-5h6.7c5.6,0,6.1,1.9,6.1,4.7v0.5h-4.8c0-1.2-0.1-1.6-2.4-1.6h-5.3
			c-1.1,0-1.8,0.4-1.8,1.2c0,1.4,0.6,1.4,5.8,1.4c7.5,0,9.2,0.4,9.2,5c0,4.2-1.4,4.9-7.9,4.9H113c-4.4,0-6.2-0.8-6.2-4.2L106.9,17.9
			C106.8,17.9,106.9,17.9,106.9,17.9z"/>
		<polygon class="st3" points="128.6,7.3 147,7.3 147,11.2 140.2,11.2 140.2,23 135.4,23 135.4,11.2 128.6,11.2 		"/>
	</g>
</g>
<g>
	<g>
		<path class="st3" d="M23.7,24c0-1.5,0.8-1.8,2.2-1.8h2.5c1.4,0,2.2,0.4,2.2,1.8v1.5c0,1.5-0.8,1.8-2.2,1.8H26
			c-1.4,0-2.2-0.3-2.2-1.8L23.7,24L23.7,24z M25.3,25.1c0,0.7,0.2,1,0.9,1h2c0.7,0,0.9-0.3,0.9-1v-0.5c0-0.6-0.2-1-1-1h-1.8
			c-0.8,0-1,0.4-1,1V25.1z"/>
		<path class="st3" d="M33.6,24.8l-2.3-2.5h2l1.6,1.8l1.6-1.8h2l-2.3,2.5l2.5,2.5h-2.1l-1.7-1.8l-1.7,1.8h-2.1L33.6,24.8z"/>
		<path class="st3" d="M39.3,22.3h1.6v5.1h-1.6V22.3z"/>
		<path class="st3" d="M41.9,25.7h1.6c0,0.5,0.2,0.6,0.7,0.6h1.9c0.3,0,0.7,0,0.7-0.4s-0.2-0.5-2.2-0.5c-2.3,0-2.6-0.3-2.6-1.5
			c0-0.9,0.1-1.6,2-1.6h2.2c1.8,0,2,0.6,2,1.5V24h-1.6c0-0.4,0-0.5-0.8-0.5h-1.7c-0.4,0-0.6,0.1-0.6,0.4c0,0.4,0.2,0.5,1.9,0.4
			c2.4,0,3,0.1,3,1.6c0,1.4-0.5,1.6-2.5,1.6H44c-1.4,0-2-0.3-2-1.4v-0.4H41.9z"/>
		<path class="st3" d="M49.2,24c0-1.5,0.8-1.8,2.2-1.8h2.5c1.4,0,2.2,0.4,2.2,1.8v1.5c0,1.5-0.8,1.8-2.2,1.8h-2.5
			c-1.4,0-2.2-0.3-2.2-1.8V24z M50.8,25.1c0,0.7,0.2,1,0.9,1h2c0.7,0,0.9-0.3,0.9-1v-0.5c0-0.6-0.2-1-1-1h-1.8c-0.8,0-1,0.4-1,1
			C50.8,24.6,50.8,25.1,50.8,25.1z"/>
		<path class="st3" d="M57.1,22.3h5.3v1.2h-3.7v0.9h3.6v1.2h-3.6v1.7h-1.6V22.3z"/>
		<path class="st3" d="M62.9,22.3h5.9v1.3h-2.2v3.8H65v-3.8h-2.2L62.9,22.3L62.9,22.3z"/>
		<path class="st3" d="M69,22.3h1.5l1.1,3.7l0,0l1.3-3.7h1.4l1.3,3.7l0,0l1.1-3.7h1.5l-1.6,5.1h-1.8L73.7,24l0,0l-1.2,3.3h-1.8
			L69,22.3z"/>
		<path class="st3" d="M80.8,22.3h2l2.8,5.1h-1.7l-0.5-0.9h-3.2l-0.5,0.9H78L80.8,22.3z M80.9,25.3h2l-1-1.9L80.9,25.3z"/>
		<path class="st3" d="M86.2,22.3h4.7c1.2,0,1.5,0.6,1.5,1.5v0.3c0,0.7-0.2,1.1-0.9,1.2l0,0c0.5,0.1,0.8,0.3,0.8,1.1v0.9h-1.6v-0.6
			c0-0.5-0.2-0.7-0.6-0.7h-2.4v1.3h-1.6L86.2,22.3L86.2,22.3z M87.8,24.8h2.6c0.4,0,0.6-0.2,0.6-0.5v-0.2c0-0.4-0.2-0.5-0.7-0.5
			h-2.4L87.8,24.8L87.8,24.8z"/>
		<path class="st3" d="M93.5,22.3H99v1.2h-4v0.8h3.8v1.1H95v0.8h4.1v1.2h-5.6V22.3z"/>
		<path class="st3" d="M100.5,25.9h1.5v1.4h-1.5V25.9z"/>
		<path class="st3" d="M103.4,24c0-1.5,0.8-1.8,2.2-1.8h1.8c2.2,0,2.5,0.5,2.5,1.9h-1.6V24c0-0.4-0.3-0.5-0.7-0.5H106
			c-0.8,0-1,0.4-1,1V25c0,0.7,0.2,1,0.9,1h1.7c0.7,0,0.9-0.1,0.9-0.7h1.6v0.5c0,0.9-0.3,1.5-1.9,1.5h-2.5c-1.4,0-2.2-0.3-2.2-1.8
			L103.4,24L103.4,24z"/>
		<path class="st3" d="M110.8,24c0-1.5,0.8-1.8,2.2-1.8h2.5c1.4,0,2.2,0.4,2.2,1.8v1.5c0,1.5-0.8,1.8-2.2,1.8H113
			c-1.4,0-2.2-0.3-2.2-1.8V24z M112.4,25.1c0,0.7,0.2,1,0.9,1h2c0.7,0,0.9-0.3,0.9-1v-0.5c0-0.6-0.2-1-1-1h-1.8c-0.8,0-1,0.4-1,1
			V25.1z"/>
		<path class="st3" d="M118.7,22.3h2.4l1.8,3.3l1.8-3.3h2.4v5.1h-1.5v-3.6l0,0l-2,3.6h-1.2l-2-3.6l0,0v3.6h-1.5v-5.1H118.7z"/>
	</g>
	<polygon class="st4" points="152.7,6.3 156.8,6.3 156.8,6.3 	"/>
	<g>
		<path class="st2" d="M2.2,8.5c0-4.8,2.7-5.9,7.2-5.9h8c4.5,0,7.2,1.1,7.2,5.9v4.9c0,4.8-2.7,5.9-7.2,5.9h-8
			c-4.5,0-7.2-1.1-7.2-5.9C2.2,13.4,2.2,8.5,2.2,8.5z M7.4,11.8c0,2.4,0.5,3.3,2.9,3.3h6.4c2.4,0,2.9-0.9,2.9-3.3V10
			c0-2-0.5-3.3-3.1-3.3h-5.9C8,6.7,7.5,7.9,7.5,10v1.8H7.4z"/>
		<path class="st2" d="M34.1,10.9l-7.4-8.1h6.5l5.1,5.7l5.1-5.7h6.5l-7.4,8.1l8,8.2h-6.7l-5.4-5.9L33,19.1h-6.7L34.1,10.9z"/>
		<path class="st2" d="M52.4,2.8h5v16.3h-5V2.8z"/>
		<path class="st3" d="M60.7,13.8h5c0,1.7,0.7,1.9,2.2,1.9H74c1.1,0,2.1-0.1,2.1-1.4c0-1.4-0.6-1.5-7-1.5c-7.5,0-8.4-0.9-8.4-4.9
			c0-2.9,0.3-5.2,6.6-5.2h7c5.8,0,6.3,2,6.3,4.8V8h-5c0-1.2-0.1-1.7-2.4-1.7h-5.5c-1.1,0-1.9,0.4-1.9,1.3c0,1.4,0.6,1.5,6,1.4
			c7.8,0,9.6,0.5,9.6,5.2c0,4.4-1.5,5.1-8.1,5.1h-6.1c-4.5,0-6.4-0.9-6.4-4.4L60.7,13.8L60.7,13.8z"/>
		<path class="st3" d="M84,8.5c0-4.8,2.7-5.9,7.2-5.9h8c4.5,0,7.2,1.1,7.2,5.9v4.9c0,4.8-2.7,5.9-7.2,5.9h-8c-4.5,0-7.2-1.1-7.2-5.9
			V8.5z M89.1,11.8c0,2.4,0.5,3.3,2.9,3.3h6.4c2.4,0,2.9-0.9,2.9-3.3V10c0-2-0.5-3.3-3.1-3.3h-5.9c-2.6,0-3.1,1.2-3.1,3.3v1.8H89.1z
			"/>
		<path class="st3" d="M109.3,2.8h17v3.9h-12v3h11.5v3.8h-11.5v5.6h-5V2.8z"/>
		<path class="st3" d="M128.2,2.8h19v4.1h-7v12.2h-5V6.8h-7V2.8z"/>
	</g>
</g>
</svg>
